<svg width="71" height="70" viewBox="0 0 71 70" fill="none" xmlns="http://www.w3.org/2000/svg">
<path d="M2 66.172C1.16667 66.172 0.5 66.8387 0.5 67.672C0.5 68.5053 1.16667 69.172 2 69.172C2.83333 69.172 3.5 68.5053 3.5 67.672C3.5 66.8387 2.83333 66.172 2 66.172Z" fill="#425466"/>
<path d="M1 67.672C1 67.1148 1.44281 66.672 2 66.672V65.672C0.890525 65.672 0 66.5625 0 67.672H1ZM2 66.672C2.55719 66.672 3 67.1148 3 67.672H4C4 66.5625 3.10948 65.672 2 65.672V66.672ZM3 67.672C3 68.2292 2.55719 68.672 2 68.672V69.672C3.10948 69.672 4 68.7815 4 67.672H3ZM2 68.672C1.44281 68.672 1 68.2292 1 67.672H0C0 68.7815 0.890525 69.672 2 69.672V68.672ZM3.5 68.172H16.5V67.172H3.5V68.172ZM37 47.672V20.672H36V47.672H37ZM56.5 1.172H71V0.171997H56.5V1.172ZM37 20.672C37 9.90244 45.7304 1.172 56.5 1.172V0.171997C45.1782 0.171997 36 9.35016 36 20.672H37ZM16.5 68.172C27.8218 68.172 37 58.9938 37 47.672H36C36 58.4416 27.2696 67.172 16.5 67.172V68.172Z" fill="#425466"/>
</svg>
