<svg width="52" height="136" viewBox="0 0 52 136" fill="none" xmlns="http://www.w3.org/2000/svg">
<path d="M2 66.172C1.16667 66.172 0.5 66.8387 0.5 67.672C0.5 68.5053 1.16667 69.172 2 69.172C2.83333 69.172 3.5 68.5053 3.5 67.672C3.5 66.8387 2.83333 66.172 2 66.172Z" fill="#425466"/>
<path d="M1 67.672C1 67.1148 1.44281 66.672 2 66.672V65.672C0.890525 65.672 0 66.5625 0 67.672H1ZM2 66.672C2.55719 66.672 3 67.1148 3 67.672H4C4 66.5625 3.10948 65.672 2 65.672V66.672ZM3 67.672C3 68.2292 2.55719 68.672 2 68.672V69.672C3.10948 69.672 4 68.7815 4 67.672H3ZM2 68.672C1.44281 68.672 1 68.2292 1 67.672H0C0 68.7815 0.890525 69.672 2 69.672V68.672ZM3.5 68.172H7V67.172H3.5V68.172ZM27.5 47.672V20.672H26.5V47.672H27.5ZM47 1.172H52V0.171997H47V1.172ZM27.5 20.672C27.5 9.90244 36.2304 1.172 47 1.172V0.171997C35.6782 0.171997 26.5 9.35016 26.5 20.672H27.5ZM7 68.172C18.3218 68.172 27.5 58.9938 27.5 47.672H26.5C26.5 58.4416 17.7696 67.172 7 67.172V68.172Z" fill="#425466"/>
<path d="M2 66.172C1.16667 66.172 0.5 66.8387 0.5 67.672C0.5 68.5053 1.16667 69.172 2 69.172C2.83333 69.172 3.5 68.5053 3.5 67.672C3.5 66.8387 2.83333 66.172 2 66.172Z" fill="#425466"/>
<path d="M1 67.672C1 67.1148 1.44281 66.672 2 66.672V65.672C0.890524 65.672 0 66.5625 0 67.672H1ZM2 66.672C2.55719 66.672 3 67.1148 3 67.672H4C4 66.5625 3.10948 65.672 2 65.672V66.672ZM3 67.672C3 68.2292 2.55719 68.672 2 68.672V69.672C3.10948 69.672 4 68.7815 4 67.672H3ZM2 68.672C1.44281 68.672 1 68.2292 1 67.672H0C0 68.7815 0.890524 69.672 2 69.672V68.672ZM3.5 68.172H7V67.172H3.5V68.172ZM26.5 87.672V114.672H27.5V87.672H26.5ZM47 135.172H52V134.172H47V135.172ZM26.5 114.672C26.5 125.994 35.6782 135.172 47 135.172V134.172C36.2304 134.172 27.5 125.442 27.5 114.672H26.5ZM7 68.172C17.7696 68.172 26.5 76.9024 26.5 87.672H27.5C27.5 76.3502 18.3218 67.172 7 67.172V68.172Z" fill="#425466"/>
</svg>
