<svg width="71" height="273" viewBox="0 0 71 273" fill="none" xmlns="http://www.w3.org/2000/svg">
<path d="M2 269.172C1.16667 269.172 0.5 269.839 0.5 270.672C0.5 271.505 1.16667 272.172 2 272.172C2.83333 272.172 3.5 271.505 3.5 270.672C3.5 269.839 2.83333 269.172 2 269.172Z" fill="#425466"/>
<path d="M1 270.672C1 270.115 1.44281 269.672 2 269.672V268.672C0.890523 268.672 0 269.563 0 270.672H1ZM2 269.672C2.55719 269.672 3 270.115 3 270.672H4C4 269.563 3.10948 268.672 2 268.672V269.672ZM3 270.672C3 271.229 2.55719 271.672 2 271.672V272.672C3.10948 272.672 4 271.781 4 270.672H3ZM2 271.672C1.44281 271.672 1 271.229 1 270.672H0C0 271.781 0.890523 272.672 2 272.672V271.672ZM3.5 271.172H16.5V270.172H3.5V271.172ZM37 250.672V156.672H36V250.672H37ZM56.5 137.172H71V136.172H56.5V137.172ZM37 156.672C37 145.902 45.7304 137.172 56.5 137.172V136.172C45.1782 136.172 36 145.35 36 156.672H37ZM16.5 271.172C27.8218 271.172 37 261.994 37 250.672H36C36 261.442 27.2696 270.172 16.5 270.172V271.172Z" fill="#425466"/>
<path d="M2 135.172C1.16667 135.172 0.5 135.839 0.5 136.672C0.5 137.505 1.16667 138.172 2 138.172C2.83333 138.172 3.5 137.505 3.5 136.672C3.5 135.839 2.83333 135.172 2 135.172Z" fill="#425466"/>
<path d="M1 136.672C1 136.115 1.44281 135.672 2 135.672V134.672C0.890524 134.672 0 135.563 0 136.672H1ZM2 135.672C2.55719 135.672 3 136.115 3 136.672H4C4 135.563 3.10948 134.672 2 134.672V135.672ZM3 136.672C3 137.229 2.55719 137.672 2 137.672V138.672C3.10948 138.672 4 137.781 4 136.672H3ZM2 137.672C1.44281 137.672 1 137.229 1 136.672H0C0 137.781 0.890524 138.672 2 138.672V137.672ZM3.5 137.172H71V136.172H3.5V137.172Z" fill="#425466"/>
<path d="M2 1.172C1.16667 1.172 0.5 1.83866 0.5 2.672C0.5 3.50533 1.16667 4.172 2 4.172C2.83333 4.172 3.5 3.50533 3.5 2.672C3.5 1.83866 2.83333 1.172 2 1.172Z" fill="#425466"/>
<path d="M1 2.672C1 2.11481 1.44281 1.672 2 1.672V0.671997C0.890524 0.671997 0 1.56252 0 2.672H1ZM2 1.672C2.55719 1.672 3 2.11481 3 2.672H4C4 1.56252 3.10948 0.671997 2 0.671997V1.672ZM3 2.672C3 3.22919 2.55719 3.672 2 3.672V4.672C3.10948 4.672 4 3.78147 4 2.672H3ZM2 3.672C1.44281 3.672 1 3.22919 1 2.672H0C0 3.78147 0.890524 4.672 2 4.672V3.672ZM3.5 3.172H16.5V2.172H3.5V3.172ZM36 22.672V116.672H37V22.672H36ZM56.5 137.172H71V136.172H56.5V137.172ZM36 116.672C36 127.994 45.1782 137.172 56.5 137.172V136.172C45.7304 136.172 37 127.442 37 116.672H36ZM16.5 3.172C27.2696 3.172 36 11.9024 36 22.672H37C37 11.3502 27.8218 2.172 16.5 2.172V3.172Z" fill="#425466"/>
</svg>
