<svg width="40" height="40" viewBox="0 0 40 40" fill="none" xmlns="http://www.w3.org/2000/svg">
<rect width="40" height="40" rx="10" fill="#3DB792" fill-opacity="0.2"/>
<path d="M27.1199 22.9399L27.4399 23.5899C27.5999 23.9099 28.0099 24.2099 28.3499 24.2699L28.7799 24.3399C30.0899 24.5599 30.3899 25.5199 29.4599 26.4599L29.0599 26.8599C28.7899 27.1299 28.6499 27.6499 28.7299 28.0299L28.7799 28.2699C29.1399 29.8499 28.2999 30.4599 26.9299 29.6299L26.6399 29.4499C26.2899 29.2399 25.7099 29.2399 25.3599 29.4499L25.0699 29.6299C23.6899 30.4599 22.8599 29.8499 23.2199 28.2699L23.2699 28.0299C23.3499 27.6599 23.2099 27.1299 22.9399 26.8599L22.5399 26.4599C21.6099 25.5099 21.9099 24.5599 23.2199 24.3399L23.6499 24.2699C23.9999 24.2099 24.3999 23.9099 24.5599 23.5899L24.8799 22.9399C25.4999 21.6899 26.4999 21.6899 27.1199 22.9399Z" fill="#3DB792"/>
<path d="M24.19 10H15.81C12.17 10 10 12.17 10 15.81V24.19C10 27.83 12.17 30 15.81 30H21.09C21.44 30 21.69 29.64 21.65 29.29C21.61 28.91 21.63 28.46 21.75 27.94C21.77 27.87 21.75 27.79 21.69 27.73L21.47 27.51C20.62 26.65 20.31 25.61 20.61 24.66C20.92 23.72 21.78 23.06 22.97 22.86L23.27 22.81L23.54 22.27C24.09 21.15 24.99 20.5 26 20.5C27.01 20.5 27.91 21.15 28.46 22.27L28.61 22.58C28.68 22.73 28.82 22.83 28.98 22.86C29.07 22.88 29.16 22.9 29.25 22.92C29.6 23.01 30 22.73 30 22.36V15.81C30 12.17 27.83 10 24.19 10ZM24.26 16.96L21.95 19.94C21.66 20.31 21.25 20.55 20.78 20.6C20.32 20.66 19.85 20.53 19.49 20.24L17.66 18.82C17.59 18.76 17.51 18.76 17.47 18.77C17.43 18.77 17.36 18.79 17.3 18.87L14.92 21.96C14.77 22.15 14.55 22.25 14.32 22.25C14.16 22.25 14 22.2 13.86 22.09C13.53 21.84 13.47 21.37 13.72 21.04L16.1 17.95C16.39 17.58 16.8 17.34 17.27 17.28C17.74 17.22 18.2 17.35 18.57 17.64L20.4 19.08C20.47 19.14 20.54 19.13 20.59 19.13C20.63 19.13 20.7 19.11 20.76 19.03L23.07 16.05C23.32 15.72 23.79 15.66 24.12 15.92C24.46 16.17 24.51 16.64 24.26 16.96Z" fill="#3DB792"/>
</svg>
