<svg width="40" height="40" viewBox="0 0 40 40" fill="none" xmlns="http://www.w3.org/2000/svg">
<rect width="40" height="40" rx="10" fill="#3DB792" fill-opacity="0.2"/>
<path d="M25.56 10H14.41C11.98 10 10 11.98 10 14.41V20.91V21.11C10 23.55 11.98 25.52 14.41 25.52H18.25C18.8 25.52 19.25 25.97 19.25 26.52V27.49C19.25 28.04 18.8 28.49 18.25 28.49H15.83C15.42 28.49 15.08 28.83 15.08 29.24C15.08 29.65 15.41 30 15.83 30H24.18C24.59 30 24.93 29.66 24.93 29.25C24.93 28.84 24.59 28.5 24.18 28.5H21.76C21.21 28.5 20.76 28.05 20.76 27.5V26.53C20.76 25.98 21.21 25.53 21.76 25.53H25.57C28.01 25.53 29.98 23.55 29.98 21.12V20.92V14.42C29.97 11.98 27.99 10 25.56 10Z" fill="#3DB792"/>
</svg>
