<svg width="40" height="40" viewBox="0 0 40 40" fill="none" xmlns="http://www.w3.org/2000/svg">
<rect width="40" height="40" rx="10" fill="#3DB792" fill-opacity="0.2"/>
<path d="M26.7304 22.6701L22.5804 26.8201C22.4204 26.9801 22.2704 27.2901 22.2304 27.5101L22.0004 29.1001C21.9204 29.6701 22.3204 30.0801 22.8904 29.9901L24.4804 29.7601C24.7004 29.7301 25.0104 29.5701 25.1704 29.4101L29.3204 25.2601C30.0304 24.5501 30.3704 23.7101 29.3204 22.6601C28.2804 21.6201 27.4504 21.9501 26.7304 22.6701Z" fill="#3DB792"/>
<path d="M26.1406 23.26C26.4906 24.52 27.4806 25.5 28.7406 25.86L26.1406 23.26Z" fill="#3DB792"/>
<path d="M10.0298 22.6299C10.0298 22.6599 10.0098 22.6999 10.0098 22.7299C10.9298 24.5699 12.4298 26.0799 14.2698 26.9899C14.2998 26.9899 14.3398 26.9699 14.3698 26.9699C14.0298 25.8099 13.7698 24.6199 13.5798 23.4299C12.3798 23.2299 11.1898 22.9699 10.0298 22.6299Z" fill="#3DB792"/>
<path d="M27.0701 14.4299C26.1301 12.4599 24.5401 10.8699 22.5801 9.93994C22.9401 11.1299 23.2401 12.3499 23.4401 13.5699C24.6601 13.7699 25.8801 14.0599 27.0701 14.4299Z" fill="#3DB792"/>
<path d="M9.92969 14.43C11.1297 14.07 12.3497 13.77 13.5697 13.57C13.7697 12.38 14.0197 11.2 14.3597 10.04C14.3297 10.04 14.2897 10.02 14.2597 10.02C12.3797 10.95 10.8497 12.52 9.92969 14.43Z" fill="#3DB792"/>
<path d="M21.8197 13.36C21.5797 12.06 21.2797 10.76 20.8497 9.5C20.8297 9.43 20.8297 9.37 20.8197 9.29C20.0797 9.11 19.2997 9 18.4997 9C17.6897 9 16.9197 9.11 16.1697 9.3C16.1597 9.37 16.1697 9.43 16.1497 9.51C15.7297 10.77 15.4197 12.06 15.1797 13.36C17.3897 13.12 19.6097 13.12 21.8197 13.36Z" fill="#3DB792"/>
<path d="M13.36 15.1801C12.05 15.4201 10.77 15.7301 9.5 16.1501C9.43 16.1701 9.37 16.1701 9.3 16.1801C9.11 16.9201 9 17.7001 9 18.5001C9 19.3101 9.11 20.0801 9.3 20.8301C9.37 20.8401 9.43 20.8301 9.51 20.8501C10.77 21.2701 12.06 21.5801 13.37 21.8201C13.12 19.6101 13.12 17.3901 13.36 15.1801Z" fill="#3DB792"/>
<path d="M27.6989 16.1799C27.6289 16.1799 27.5689 16.1699 27.4889 16.1499C26.2289 15.7299 24.9289 15.4199 23.6289 15.1799C23.8789 17.3899 23.8789 19.6099 23.6289 21.8099C24.9289 21.5699 26.2289 21.2699 27.4889 20.8399C27.5589 20.8199 27.6189 20.8299 27.6989 20.8199C27.8789 20.0699 27.9989 19.2999 27.9989 18.4899C27.9989 17.6999 27.8889 16.9299 27.6989 16.1799Z" fill="#3DB792"/>
<path d="M15.1797 23.6399C15.4197 24.9499 15.7197 26.2399 16.1497 27.4999C16.1697 27.5699 16.1597 27.6299 16.1697 27.7099C16.9197 27.8899 17.6897 27.9999 18.4997 27.9999C19.2997 27.9999 20.0797 27.8899 20.8197 27.6999C20.8297 27.6299 20.8297 27.5699 20.8497 27.4899C21.2697 26.2299 21.5797 24.9399 21.8197 23.6299C20.7197 23.7499 19.6097 23.8399 18.4997 23.8399C17.3897 23.8399 16.2797 23.7599 15.1797 23.6399Z" fill="#3DB792"/>
<path d="M14.9496 14.9501C14.6496 17.3101 14.6496 19.6901 14.9496 22.0601C17.3096 22.3601 19.6896 22.3601 22.0596 22.0601C22.3596 19.7001 22.3596 17.3201 22.0596 14.9501C19.6896 14.6501 17.3096 14.6501 14.9496 14.9501Z" fill="#3DB792"/>
</svg>
