<svg width="40" height="40" viewBox="0 0 40 40" fill="none" xmlns="http://www.w3.org/2000/svg">
<rect width="40" height="40" rx="10" fill="#3DB792" fill-opacity="0.2"/>
<path fill-rule="evenodd" clip-rule="evenodd" d="M15.81 10H24.19C27.83 10 30 12.17 29.99 15.81V24.19C29.99 27.83 27.82 30 24.18 30H15.81C12.17 30 10 27.83 10 24.18V15.81C10 12.17 12.17 10 15.81 10ZM18.832 16.6909H13.9629V17.9389H15.7403V23.3091H17.0451V17.9389H18.832V16.6909ZM26.0367 16.6909H24.6942L22.8033 19.8204L20.9029 16.6909H19.5604V23.3091H20.8651V19.0262L22.7276 22.0895H22.8789L24.7414 19.0167V23.3091H26.0367V16.6909Z" fill="#3DB792"/>
</svg>
