<svg width="40" height="40" viewBox="0 0 40 40" fill="none" xmlns="http://www.w3.org/2000/svg">
<rect width="40" height="40" rx="10" fill="#3DB792" fill-opacity="0.2"/>
<path d="M13 23C11.98 23 11.04 23.39 10.33 24.03C10.17 24.17 10.02 24.32 9.89 24.49C9.33 25.18 9 26.05 9 27C9 29.21 10.8 31 13 31C13.96 31 14.83 30.66 15.52 30.11C16.08 29.64 16.52 29.03 16.76 28.33C16.92 27.92 17 27.47 17 27C17 24.8 15.21 23 13 23ZM15.4 26.23C15.4 26.51 15.18 26.72 14.91 26.72C14.64 26.72 14.42 26.51 14.42 26.23V26.13C14.42 26.02 14.34 25.93 14.23 25.93H12.23C12.33 26.12 12.31 26.35 12.15 26.51C12.06 26.6 11.94 26.65 11.8 26.65C11.68 26.65 11.55 26.6 11.46 26.51L10.74 25.79C10.7 25.75 10.66 25.69 10.63 25.63C10.59 25.51 10.59 25.38 10.63 25.26C10.66 25.21 10.69 25.14 10.74 25.1L11.46 24.39C11.65 24.19 11.96 24.19 12.14 24.39C12.3 24.54 12.32 24.78 12.22 24.96H14.23C14.87 24.96 15.39 25.48 15.39 26.13V26.23H15.4ZM14.2 29.76C14.07 29.76 13.94 29.72 13.85 29.62C13.69 29.47 13.67 29.23 13.77 29.05H11.76C11.12 29.05 10.6 28.53 10.6 27.88V27.78C10.6 27.5 10.82 27.29 11.09 27.29C11.36 27.29 11.58 27.5 11.58 27.78V27.88C11.58 27.99 11.66 28.08 11.77 28.08H13.78C13.68 27.89 13.7 27.66 13.86 27.5C14.05 27.31 14.36 27.31 14.54 27.5L15.26 28.22C15.3 28.26 15.34 28.32 15.37 28.38C15.41 28.5 15.41 28.63 15.37 28.75C15.34 28.8 15.3 28.86 15.26 28.9L14.54 29.61C14.45 29.71 14.32 29.76 14.2 29.76Z" fill="#3DB792"/>
<path d="M22.85 11.95V15.75H21.35V11.95C21.35 11.68 21.11 11.55 20.95 11.55C20.9 11.55 20.85 11.56 20.8 11.58L12.87 14.57C12.34 14.77 12 15.27 12 15.84V16.51C11.09 17.19 10.5 18.28 10.5 19.51V15.84C10.5 14.65 11.23 13.59 12.34 13.17L20.28 10.17C20.5 10.09 20.73 10.05 20.95 10.05C21.95 10.05 22.85 10.86 22.85 11.95Z" fill="#3DB792"/>
<path d="M29.5007 22.5V23.5C29.5007 23.77 29.2907 23.99 29.0107 24H27.5507C27.0207 24 26.5407 23.61 26.5007 23.09C26.4707 22.78 26.5907 22.49 26.7907 22.29C26.9707 22.1 27.2207 22 27.4907 22H29.0007C29.2907 22.01 29.5007 22.23 29.5007 22.5Z" fill="#3DB792"/>
<path d="M27.48 20.95H28.5C29.05 20.95 29.5 20.5 29.5 19.95V19.51C29.5 17.44 27.81 15.75 25.74 15.75H14.26C13.41 15.75 12.63 16.03 12 16.51C11.09 17.19 10.5 18.28 10.5 19.51V21.29C10.5 21.67 10.9 21.91 11.26 21.79C11.82 21.6 12.41 21.5 13 21.5C16.03 21.5 18.5 23.97 18.5 27C18.5 27.72 18.31 28.51 18.01 29.21C17.85 29.57 18.1 30 18.49 30H25.74C27.81 30 29.5 28.31 29.5 26.24V26.05C29.5 25.5 29.05 25.05 28.5 25.05H27.63C26.67 25.05 25.75 24.46 25.5 23.53C25.3 22.77 25.54 22.03 26.04 21.55C26.41 21.17 26.92 20.95 27.48 20.95ZM22 20.75H17C16.59 20.75 16.25 20.41 16.25 20C16.25 19.59 16.59 19.25 17 19.25H22C22.41 19.25 22.75 19.59 22.75 20C22.75 20.41 22.41 20.75 22 20.75Z" fill="#3DB792"/>
</svg>
