<svg width="40" height="40" viewBox="0 0 40 40" fill="none" xmlns="http://www.w3.org/2000/svg">
<rect width="40" height="40" rx="10" fill="#3DB792" fill-opacity="0.2"/>
<path d="M30 10.75H10C9.59 10.75 9.25 10.41 9.25 10C9.25 9.59 9.59 9.25 10 9.25H30C30.41 9.25 30.75 9.59 30.75 10C30.75 10.41 30.41 10.75 30 10.75Z" fill="#3DB792"/>
<path d="M24.6703 30.34C24.5403 30.6 24.2703 30.75 24.0003 30.75C23.8903 30.75 23.7703 30.72 23.6703 30.67L20.0003 28.84L16.3303 30.67C16.2303 30.72 16.1103 30.75 16.0003 30.75C15.7303 30.75 15.4603 30.6 15.3303 30.34C15.1403 29.96 15.2903 29.51 15.6703 29.33L19.2503 27.54V25H20.7503V27.54L24.3303 29.33C24.7103 29.51 24.8603 29.96 24.6703 30.34Z" fill="#3DB792"/>
<path d="M11 10V22.1C11 24 12 25 13.9 25H26.1C28 25 29 24 29 22.1V10H11ZM24.98 16.58L21.83 19.21C21.54 19.45 21.17 19.55 20.82 19.49C20.46 19.43 20.15 19.21 19.96 18.89L18.91 17.14L15.98 19.58C15.84 19.7 15.67 19.75 15.5 19.75C15.29 19.75 15.07 19.66 14.92 19.48C14.65 19.16 14.7 18.69 15.02 18.42L18.17 15.79C18.46 15.55 18.83 15.45 19.18 15.51C19.54 15.57 19.85 15.79 20.04 16.11L21.09 17.86L24.02 15.42C24.34 15.15 24.81 15.2 25.08 15.52C25.34 15.84 25.3 16.31 24.98 16.58Z" fill="#3DB792"/>
</svg>
