<svg width="40" height="40" viewBox="0 0 40 40" fill="none" xmlns="http://www.w3.org/2000/svg">
<rect width="40" height="40" rx="20" fill="white" fill-opacity="0.1"/>
<path fill-rule="evenodd" clip-rule="evenodd" d="M28.9704 15.9999L29.7704 17.7999C30.2304 18.8499 29.9804 20.3899 29.2104 21.2399L22.3604 28.7799C21.0604 30.2099 18.9404 30.2099 17.6404 28.7799L10.7904 21.2399C10.0204 20.3899 9.77044 18.8499 10.2304 17.7999L11.0304 15.9999L12.7904 12.0399C13.2604 10.9999 14.0004 10.1499 15.7004 10.1499H24.3004C26.0004 10.1499 26.7404 10.9999 27.2104 12.0399L28.9704 15.9999ZM19.7489 15.7499C19.4911 15.7499 19.2393 15.8551 19.0502 16.0497C18.8603 16.2451 18.75 16.5145 18.75 16.7999C18.75 17.2141 18.4142 17.5499 18 17.5499C17.5858 17.5499 17.25 17.2141 17.25 16.7999C17.25 16.1304 17.5082 15.4842 17.9744 15.0044C18.4412 14.5239 19.0791 14.2499 19.7489 14.2499H20.2486C20.9185 14.2499 21.5564 14.5239 22.0232 15.0044C22.4852 15.4799 22.743 16.1189 22.7475 16.782C22.7688 17.2977 22.6525 17.8166 22.4039 18.2643C22.1615 18.701 21.7968 19.0613 21.3422 19.2679C21.2254 19.3433 21.0688 19.5129 20.9405 19.821C20.8061 20.1439 20.7333 20.55 20.7483 20.9733C20.763 21.3873 20.4393 21.7347 20.0254 21.7494C19.6114 21.7641 19.2639 21.4404 19.2493 21.0264C19.2275 20.411 19.3298 19.7872 19.5558 19.2444C19.779 18.7083 20.1358 18.2247 20.6303 17.9463C20.6549 17.9324 20.6804 17.92 20.7065 17.9089C20.8407 17.8523 20.9837 17.7322 21.0925 17.5362C21.2016 17.3397 21.2606 17.0929 21.2484 16.8353C21.2479 16.8235 21.2476 16.8117 21.2476 16.7999C21.2476 16.5145 21.1373 16.2451 20.9474 16.0497C20.7583 15.8551 20.5065 15.7499 20.2486 15.7499H19.7489ZM20.75 23.8913C20.75 24.3055 20.4142 24.6413 20 24.6413C19.5858 24.6413 19.25 24.3055 19.25 23.8913C19.25 23.4771 19.5858 23.1413 20 23.1413C20.4142 23.1413 20.75 23.4771 20.75 23.8913Z" fill="white"/>
</svg>
