<svg width="40" height="40" viewBox="0 0 40 40" fill="none" xmlns="http://www.w3.org/2000/svg">
<rect width="40" height="40" rx="20" fill="white" fill-opacity="0.1"/>
<path d="M28.091 17.3493C26.2819 17.3493 25.5422 16.1288 26.4418 14.6318C26.9615 13.7641 26.6517 12.658 25.7421 12.1622L24.013 11.2183C23.2234 10.7701 22.2039 11.0371 21.7341 11.7904L21.6242 11.9715C20.7246 13.4685 19.2454 13.4685 18.3358 11.9715L18.2259 11.7904C17.7761 11.0371 16.7566 10.7701 15.967 11.2183L14.2379 12.1622C13.3283 12.658 13.0185 13.7736 13.5382 14.6413C14.4478 16.1288 13.7081 17.3493 11.8991 17.3493C10.8596 17.3493 10 18.1597 10 19.1609V20.8391C10 21.8307 10.8496 22.6507 11.8991 22.6507C13.7081 22.6507 14.4478 23.8712 13.5382 25.3682C13.0185 26.2359 13.3283 27.342 14.2379 27.8378L15.967 28.7817C16.7566 29.2299 17.7761 28.9629 18.2459 28.2096L18.3558 28.0285C19.2554 26.5315 20.7346 26.5315 21.6442 28.0285L21.7541 28.2096C22.2239 28.9629 23.2434 29.2299 24.033 28.7817L25.7621 27.8378C26.6717 27.342 26.9815 26.2264 26.4618 25.3682C25.5522 23.8712 26.2919 22.6507 28.101 22.6507C29.1404 22.6507 30 21.8403 30 20.8391V19.1609C29.99 18.1693 29.1404 17.3493 28.091 17.3493ZM19.995 23.0989C18.2059 23.0989 16.7466 21.7068 16.7466 20C16.7466 18.2932 18.2059 16.9011 19.995 16.9011C21.7841 16.9011 23.2434 18.2932 23.2434 20C23.2434 21.7068 21.7841 23.0989 19.995 23.0989Z" fill="white"/>
</svg>
