<svg width="246" height="46" viewBox="0 0 246 46" fill="none" xmlns="http://www.w3.org/2000/svg">
<path d="M29.9994 9.36994L26.3744 11.4615L19.1246 7.27836L15.4997 5.18316L11.8748 7.27836L4.62492 11.4615L1 9.36994L4.62492 7.27836L8.24984 5.18316L15.4997 1L22.7495 5.18316L26.3744 7.27836L29.9994 9.36994Z" fill="white" stroke="#0F1730" stroke-width="0.7" stroke-miterlimit="10"/>
<path d="M26.3748 11.4613V15.6481L22.7498 13.5565L19.1249 11.4613L15.5 9.36976V5.18298L19.1249 7.27818L26.3748 11.4613Z" fill="white" stroke="#0F1730" stroke-width="0.7" stroke-miterlimit="10"/>
<path d="M29.9999 9.36985V13.5566L26.375 15.6482V11.4614L29.9999 9.36985Z" fill="white" stroke="#0F1730" stroke-width="0.7" stroke-miterlimit="10"/>
<path d="M29.9997 32.6706V36.8574L26.3748 38.949L22.7498 41.0405L19.1249 43.1358L15.5 45.2273V41.0405L19.1249 38.949L22.7498 36.8574L26.3748 34.7622L29.9997 32.6706Z" fill="white" stroke="#0F1730" stroke-width="0.7" stroke-miterlimit="10"/>
<path d="M29.9994 32.6708L26.3745 34.7623L22.7496 36.8575L19.1247 38.9491L15.4998 41.0407L11.8748 38.9491L8.24992 36.8575L4.625 34.7623L8.24992 32.6708L11.8748 34.7623L15.4998 36.8575L19.1247 34.7623L22.7496 32.6708L26.3745 30.5792L29.9994 32.6708Z" fill="white" stroke="#0F1730" stroke-width="0.7" stroke-miterlimit="10"/>
<path d="M15.4998 5.18291V9.3697L11.8748 11.4613L8.24992 13.5565V32.6707L4.625 34.7623L4.625 11.4613L11.8748 7.27812L15.4998 5.18291Z" fill="white" stroke="#0F1730" stroke-width="0.7" stroke-miterlimit="10"/>
<path d="M15.4997 41.0408L15.4997 45.2276L11.8748 43.136L8.24984 41.0408L4.62492 38.9492L1 36.8577L1 9.3699L4.62492 11.4615L4.62492 34.7625L8.24984 36.8577L11.8748 38.9492L15.4997 41.0408Z" fill="white" stroke="#0F1730" stroke-width="0.7" stroke-miterlimit="10"/>
<path d="M63.584 23.312C73.784 23.312 75.56 18.32 75.56 16.064V15.8H69.632C69.488 16.208 68.912 18.968 63.128 18.968C57.92 18.968 56.504 16.184 56.504 14.072V13.784C56.504 11.552 57.728 9.152 63.08 9.152C68.744 9.152 69.464 11.648 69.608 12.128H75.536V11.864C75.536 9.776 73.928 4.832 63.584 4.832H62.6C52.04 4.832 50.648 10.424 50.648 13.664V14.36C50.648 17.528 52.256 23.312 62.6 23.312H63.584ZM90.6564 15.704H83.8884L87.2004 9.008L90.6564 15.704ZM94.4004 23H100.424L90.8724 5.144H83.6244L74.6004 23H80.2884L81.8964 19.736H92.7204L94.4004 23ZM114.799 17.048C121.183 17.048 123.127 14.384 123.127 11.192V10.952C123.127 7.688 121.231 5.144 114.799 5.144H101.407V23H106.999V17.048H114.799ZM106.999 9.2H114.703C116.503 9.2 117.295 9.872 117.295 11.096V11.168C117.295 12.392 116.455 13.04 114.703 13.04H106.999V9.2ZM124.985 5.144V23H130.553V15.92H143.129V11.84H130.553V9.2H143.441V5.144H124.985ZM151.39 5.144H145.798V23H151.39V5.144ZM154.118 5.144V23H159.638V11.168L171.758 23H177.278V5.144H171.758V16.376L160.358 5.144H154.118ZM180.016 5.144V23H199.072V18.848H185.536V15.92H198.52V11.84H185.536V9.2H198.832V5.144H180.016ZM206.671 23L212.095 17.456L217.567 23H224.599L215.839 13.856L224.407 5.144H217.543L212.503 10.376L207.463 5.144H199.975L208.663 13.976L199.783 23H206.671Z" fill="white"/>
<path d="M56.464 41.208C54.7573 41.208 53.3547 40.648 52.256 39.528C51.1573 38.4187 50.608 37.0427 50.608 35.4C50.608 33.7573 51.1573 32.3813 52.256 31.272C53.3547 30.152 54.7573 29.592 56.464 29.592C57.4773 29.592 58.416 29.8373 59.28 30.328C60.144 30.8187 60.816 31.48 61.296 32.312L60 33.064C59.68 32.4453 59.2 31.9547 58.56 31.592C57.9307 31.2187 57.232 31.032 56.464 31.032C55.1627 31.032 54.1067 31.448 53.296 32.28C52.4853 33.1013 52.08 34.1413 52.08 35.4C52.08 36.648 52.4853 37.6827 53.296 38.504C54.1067 39.336 55.1627 39.752 56.464 39.752C57.232 39.752 57.9307 39.5707 58.56 39.208C59.2 38.8347 59.68 38.344 60 37.736L61.296 38.472C60.8267 39.304 60.16 39.9707 59.296 40.472C58.4427 40.9627 57.4987 41.208 56.464 41.208ZM69.43 34.376V33H70.822V41H69.43V39.624C68.7473 40.68 67.7393 41.208 66.406 41.208C65.2753 41.208 64.3207 40.8027 63.542 39.992C62.7527 39.1707 62.358 38.1733 62.358 37C62.358 35.8373 62.7527 34.8453 63.542 34.024C64.3313 33.2027 65.286 32.792 66.406 32.792C67.7393 32.792 68.7473 33.32 69.43 34.376ZM66.582 39.864C67.3927 39.864 68.07 39.592 68.614 39.048C69.158 38.4827 69.43 37.8 69.43 37C69.43 36.1893 69.158 35.512 68.614 34.968C68.07 34.4133 67.3927 34.136 66.582 34.136C65.782 34.136 65.11 34.4133 64.566 34.968C64.022 35.512 63.75 36.1893 63.75 37C63.75 37.8 64.022 38.4827 64.566 39.048C65.11 39.592 65.782 39.864 66.582 39.864ZM77.347 32.792C78.467 32.792 79.4217 33.2027 80.211 34.024C81.0003 34.8453 81.395 35.8373 81.395 37C81.395 38.1733 81.0003 39.1707 80.211 39.992C79.4323 40.8027 78.4777 41.208 77.347 41.208C76.0243 41.208 75.0163 40.68 74.323 39.624V44.2H72.931V33H74.323V34.376C75.0163 33.32 76.0243 32.792 77.347 32.792ZM77.171 39.864C77.971 39.864 78.643 39.592 79.187 39.048C79.731 38.4827 80.003 37.8 80.003 37C80.003 36.1893 79.731 35.512 79.187 34.968C78.643 34.4133 77.971 34.136 77.171 34.136C76.3603 34.136 75.683 34.4133 75.139 34.968C74.595 35.512 74.323 36.1893 74.323 37C74.323 37.8 74.595 38.4827 75.139 39.048C75.683 39.592 76.3603 39.864 77.171 39.864ZM83.76 31.544C83.4933 31.544 83.2693 31.4533 83.088 31.272C82.9067 31.0907 82.816 30.872 82.816 30.616C82.816 30.36 82.9067 30.1413 83.088 29.96C83.2693 29.768 83.4933 29.672 83.76 29.672C84.016 29.672 84.2347 29.768 84.416 29.96C84.5973 30.1413 84.688 30.36 84.688 30.616C84.688 30.872 84.5973 31.0907 84.416 31.272C84.2347 31.4533 84.016 31.544 83.76 31.544ZM84.448 41H83.056V33H84.448V41ZM90.9236 33V34.344H88.7956V38.68C88.7956 39.0747 88.8703 39.3573 89.0196 39.528C89.1796 39.688 89.4196 39.7733 89.7396 39.784C90.0596 39.784 90.4543 39.7733 90.9236 39.752V41C89.697 41.16 88.801 41.0587 88.2356 40.696C87.681 40.3333 87.4036 39.6613 87.4036 38.68V34.344H85.8196V33H87.4036V31.176L88.7956 30.76V33H90.9236ZM98.7894 34.376V33H100.181V41H98.7894V39.624C98.1067 40.68 97.0987 41.208 95.7654 41.208C94.6347 41.208 93.68 40.8027 92.9014 39.992C92.112 39.1707 91.7174 38.1733 91.7174 37C91.7174 35.8373 92.112 34.8453 92.9014 34.024C93.6907 33.2027 94.6454 32.792 95.7654 32.792C97.0987 32.792 98.1067 33.32 98.7894 34.376ZM95.9414 39.864C96.752 39.864 97.4294 39.592 97.9734 39.048C98.5174 38.4827 98.7894 37.8 98.7894 37C98.7894 36.1893 98.5174 35.512 97.9734 34.968C97.4294 34.4133 96.752 34.136 95.9414 34.136C95.1414 34.136 94.4694 34.4133 93.9254 34.968C93.3814 35.512 93.1094 36.1893 93.1094 37C93.1094 37.8 93.3814 38.4827 93.9254 39.048C94.4694 39.592 95.1414 39.864 95.9414 39.864ZM103.682 41H102.29V29.32H103.682V41ZM106.686 41.176C106.398 41.176 106.153 41.0747 105.95 40.872C105.747 40.6693 105.646 40.424 105.646 40.136C105.646 39.848 105.747 39.6027 105.95 39.4C106.153 39.1973 106.398 39.096 106.686 39.096C106.985 39.096 107.23 39.1973 107.422 39.4C107.625 39.6027 107.726 39.848 107.726 40.136C107.726 40.424 107.625 40.6693 107.422 40.872C107.23 41.0747 106.985 41.176 106.686 41.176Z" fill="#AEB3D1"/>
<path d="M120.148 29.8V31.208H115.188V34.84H119.94V36.248H115.188V41H113.7V29.8H120.148ZM122.51 31.544C122.243 31.544 122.019 31.4533 121.838 31.272C121.657 31.0907 121.566 30.872 121.566 30.616C121.566 30.36 121.657 30.1413 121.838 29.96C122.019 29.768 122.243 29.672 122.51 29.672C122.766 29.672 122.985 29.768 123.166 29.96C123.347 30.1413 123.438 30.36 123.438 30.616C123.438 30.872 123.347 31.0907 123.166 31.272C122.985 31.4533 122.766 31.544 122.51 31.544ZM123.198 41H121.806V33H123.198V41ZM129.306 32.792C130.244 32.792 130.996 33.0907 131.562 33.688C132.127 34.2747 132.41 35.0747 132.41 36.088V41H131.018V36.168C131.018 35.528 130.842 35.0267 130.49 34.664C130.138 34.3013 129.652 34.12 129.034 34.12C128.319 34.12 127.754 34.344 127.338 34.792C126.922 35.2293 126.714 35.8853 126.714 36.76V41H125.322V33H126.714V34.152C127.268 33.2453 128.132 32.792 129.306 32.792ZM140.977 34.376V33H142.369V41H140.977V39.624C140.294 40.68 139.286 41.208 137.953 41.208C136.822 41.208 135.868 40.8027 135.089 39.992C134.3 39.1707 133.905 38.1733 133.905 37C133.905 35.8373 134.3 34.8453 135.089 34.024C135.878 33.2027 136.833 32.792 137.953 32.792C139.286 32.792 140.294 33.32 140.977 34.376ZM138.129 39.864C138.94 39.864 139.617 39.592 140.161 39.048C140.705 38.4827 140.977 37.8 140.977 37C140.977 36.1893 140.705 35.512 140.161 34.968C139.617 34.4133 138.94 34.136 138.129 34.136C137.329 34.136 136.657 34.4133 136.113 34.968C135.569 35.512 135.297 36.1893 135.297 37C135.297 37.8 135.569 38.4827 136.113 39.048C136.657 39.592 137.329 39.864 138.129 39.864ZM148.462 32.792C149.401 32.792 150.153 33.0907 150.718 33.688C151.283 34.2747 151.566 35.0747 151.566 36.088V41H150.174V36.168C150.174 35.528 149.998 35.0267 149.646 34.664C149.294 34.3013 148.809 34.12 148.19 34.12C147.475 34.12 146.91 34.344 146.494 34.792C146.078 35.2293 145.87 35.8853 145.87 36.76V41H144.478V33H145.87V34.152C146.425 33.2453 147.289 32.792 148.462 32.792ZM157.269 41.208C156.064 41.208 155.061 40.808 154.261 40.008C153.461 39.1973 153.061 38.1947 153.061 37C153.061 35.8053 153.461 34.808 154.261 34.008C155.061 33.1973 156.064 32.792 157.269 32.792C158.058 32.792 158.768 32.984 159.397 33.368C160.026 33.7413 160.496 34.248 160.805 34.888L159.637 35.56C159.434 35.1333 159.12 34.792 158.693 34.536C158.277 34.28 157.802 34.152 157.269 34.152C156.469 34.152 155.797 34.424 155.253 34.968C154.72 35.5227 154.453 36.2 154.453 37C154.453 37.7893 154.72 38.4613 155.253 39.016C155.797 39.56 156.469 39.832 157.269 39.832C157.802 39.832 158.282 39.7093 158.709 39.464C159.136 39.208 159.461 38.8667 159.685 38.44L160.869 39.128C160.517 39.768 160.021 40.2747 159.381 40.648C158.741 41.0213 158.037 41.208 157.269 41.208ZM169.814 37.64H163.11C163.249 38.344 163.574 38.8987 164.086 39.304C164.598 39.6987 165.238 39.896 166.006 39.896C167.062 39.896 167.83 39.5067 168.31 38.728L169.494 39.4C168.705 40.6053 167.531 41.208 165.974 41.208C164.715 41.208 163.681 40.8133 162.87 40.024C162.081 39.2133 161.686 38.2053 161.686 37C161.686 35.784 162.075 34.7813 162.854 33.992C163.633 33.192 164.641 32.792 165.878 32.792C167.051 32.792 168.006 33.208 168.742 34.04C169.489 34.8507 169.862 35.8427 169.862 37.016C169.862 37.2187 169.846 37.4267 169.814 37.64ZM165.878 34.104C165.142 34.104 164.523 34.312 164.022 34.728C163.531 35.144 163.227 35.7093 163.11 36.424H168.454C168.337 35.688 168.043 35.1173 167.574 34.712C167.105 34.3067 166.539 34.104 165.878 34.104ZM171.702 41.176C171.414 41.176 171.168 41.0747 170.966 40.872C170.763 40.6693 170.662 40.424 170.662 40.136C170.662 39.848 170.763 39.6027 170.966 39.4C171.168 39.1973 171.414 39.096 171.702 39.096C172 39.096 172.246 39.1973 172.438 39.4C172.64 39.6027 172.742 39.848 172.742 40.136C172.742 40.424 172.64 40.6693 172.438 40.872C172.246 41.0747 172 41.176 171.702 41.176Z" fill="#AEB3D1"/>
<path d="M180.688 36.04V39.592H185.888V41H179.2V29.8H185.808V31.208H180.688V34.648H185.408V36.04H180.688ZM191.428 36.872L194.484 41H192.852L190.612 37.976L188.356 41H186.724L189.796 36.888L186.9 33H188.548L190.612 35.784L192.676 33H194.308L191.428 36.872ZM199.759 32.792C200.697 32.792 201.449 33.0907 202.015 33.688C202.58 34.2747 202.863 35.0747 202.863 36.088V41H201.471V36.168C201.471 35.528 201.295 35.0267 200.943 34.664C200.591 34.3013 200.105 34.12 199.487 34.12C198.772 34.12 198.207 34.344 197.791 34.792C197.375 35.2293 197.167 35.8853 197.167 36.76V41H195.775V29.8H197.167V34.152C197.721 33.2453 198.585 32.792 199.759 32.792ZM211.43 34.376V33H212.822V41H211.43V39.624C210.747 40.68 209.739 41.208 208.406 41.208C207.275 41.208 206.321 40.8027 205.542 39.992C204.753 39.1707 204.358 38.1733 204.358 37C204.358 35.8373 204.753 34.8453 205.542 34.024C206.331 33.2027 207.286 32.792 208.406 32.792C209.739 32.792 210.747 33.32 211.43 34.376ZM208.582 39.864C209.393 39.864 210.07 39.592 210.614 39.048C211.158 38.4827 211.43 37.8 211.43 37C211.43 36.1893 211.158 35.512 210.614 34.968C210.07 34.4133 209.393 34.136 208.582 34.136C207.782 34.136 207.11 34.4133 206.566 34.968C206.022 35.512 205.75 36.1893 205.75 37C205.75 37.8 206.022 38.4827 206.566 39.048C207.11 39.592 207.782 39.864 208.582 39.864ZM218.915 32.792C219.854 32.792 220.606 33.0907 221.171 33.688C221.736 34.2747 222.019 35.0747 222.019 36.088V41H220.627V36.168C220.627 35.528 220.451 35.0267 220.099 34.664C219.747 34.3013 219.262 34.12 218.643 34.12C217.928 34.12 217.363 34.344 216.947 34.792C216.531 35.2293 216.323 35.8853 216.323 36.76V41H214.931V33H216.323V34.152C216.878 33.2453 217.742 32.792 218.915 32.792ZM230.602 34.376V33H231.978V40.664C231.978 41.848 231.578 42.7653 230.778 43.416C229.968 44.0773 229.008 44.408 227.898 44.408C227.002 44.408 226.229 44.2373 225.578 43.896C224.928 43.5653 224.437 43.0853 224.106 42.456L225.322 41.768C225.76 42.664 226.629 43.112 227.93 43.112C228.762 43.112 229.413 42.8933 229.882 42.456C230.362 42.0187 230.602 41.4213 230.602 40.664V39.528C229.898 40.5947 228.896 41.128 227.594 41.128C226.442 41.128 225.477 40.7227 224.698 39.912C223.909 39.0907 223.514 38.104 223.514 36.952C223.514 35.8 223.909 34.8187 224.698 34.008C225.477 33.1973 226.442 32.792 227.594 32.792C228.906 32.792 229.909 33.32 230.602 34.376ZM230.602 36.952C230.602 36.152 230.33 35.48 229.786 34.936C229.242 34.392 228.565 34.12 227.754 34.12C226.944 34.12 226.266 34.392 225.722 34.936C225.178 35.48 224.906 36.152 224.906 36.952C224.906 37.7627 225.178 38.44 225.722 38.984C226.266 39.528 226.944 39.8 227.754 39.8C228.565 39.8 229.242 39.528 229.786 38.984C230.33 38.44 230.602 37.7627 230.602 36.952ZM241.767 37.64H235.063C235.202 38.344 235.527 38.8987 236.039 39.304C236.551 39.6987 237.191 39.896 237.959 39.896C239.015 39.896 239.783 39.5067 240.263 38.728L241.447 39.4C240.658 40.6053 239.485 41.208 237.927 41.208C236.669 41.208 235.634 40.8133 234.823 40.024C234.034 39.2133 233.639 38.2053 233.639 37C233.639 35.784 234.029 34.7813 234.807 33.992C235.586 33.192 236.594 32.792 237.831 32.792C239.005 32.792 239.959 33.208 240.695 34.04C241.442 34.8507 241.815 35.8427 241.815 37.016C241.815 37.2187 241.799 37.4267 241.767 37.64ZM237.831 34.104C237.095 34.104 236.477 34.312 235.975 34.728C235.485 35.144 235.181 35.7093 235.063 36.424H240.407C240.29 35.688 239.997 35.1173 239.527 34.712C239.058 34.3067 238.493 34.104 237.831 34.104ZM243.655 41.176C243.367 41.176 243.121 41.0747 242.919 40.872C242.716 40.6693 242.615 40.424 242.615 40.136C242.615 39.848 242.716 39.6027 242.919 39.4C243.121 39.1973 243.367 39.096 243.655 39.096C243.953 39.096 244.199 39.1973 244.391 39.4C244.593 39.6027 244.695 39.848 244.695 40.136C244.695 40.424 244.593 40.6693 244.391 40.872C244.199 41.0747 243.953 41.176 243.655 41.176Z" fill="#AEB3D1"/>
</svg>
