<svg width="41" height="40" viewBox="0 0 41 40" fill="none" xmlns="http://www.w3.org/2000/svg">
<rect x="0.5" width="40" height="40" rx="10" fill="#3DB792" fill-opacity="0.2"/>
<path d="M20.5 10C14.99 10 10.5 14.49 10.5 20C10.5 25.51 14.99 30 20.5 30C26.01 30 30.5 25.51 30.5 20C30.5 14.49 26.01 10 20.5 10ZM25.28 17.7L19.61 23.37C19.47 23.51 19.28 23.59 19.08 23.59C18.88 23.59 18.69 23.51 18.55 23.37L15.72 20.54C15.43 20.25 15.43 19.77 15.72 19.48C16.01 19.19 16.49 19.19 16.78 19.48L19.08 21.78L24.22 16.64C24.51 16.35 24.99 16.35 25.28 16.64C25.57 16.93 25.57 17.4 25.28 17.7Z" fill="#3DB792"/>
</svg>
