<svg width="40" height="40" viewBox="0 0 40 40" fill="none" xmlns="http://www.w3.org/2000/svg">
<path d="M26 10H14C10.4 10 8 11.7647 8 15.8824V24.1176C8 28.2353 10.4 30 14 30H26C29.6 30 32 28.2353 32 24.1176V15.8824C32 11.7647 29.6 10 26 10ZM26.564 17.1647L22.808 20.1059C22.016 20.7294 21.008 21.0353 20 21.0353C18.992 21.0353 17.972 20.7294 17.192 20.1059L13.436 17.1647C13.052 16.8588 12.992 16.2941 13.292 15.9176C13.604 15.5412 14.168 15.4706 14.552 15.7765L18.308 18.7176C19.22 19.4353 20.768 19.4353 21.68 18.7176L25.436 15.7765C25.82 15.4706 26.396 15.5294 26.696 15.9176C27.008 16.2941 26.948 16.8588 26.564 17.1647Z" fill="white"/>
</svg>
