<svg width="40" height="40" viewBox="0 0 40 40" fill="none" xmlns="http://www.w3.org/2000/svg">
<rect width="40" height="40" rx="10" fill="#3DB792" fill-opacity="0.2"/>
<path d="M25.5291 15.77C25.4591 15.76 25.3891 15.76 25.3191 15.77C23.7691 15.72 22.5391 14.45 22.5391 12.89C22.5391 11.3 23.8291 10 25.4291 10C27.0191 10 28.3191 11.29 28.3191 12.89C28.3091 14.45 27.0791 15.72 25.5291 15.77Z" fill="#3DB792"/>
<path d="M28.7896 22.7C27.6696 23.45 26.0996 23.73 24.6496 23.54C25.0296 22.72 25.2296 21.81 25.2396 20.85C25.2396 19.85 25.0196 18.9 24.5996 18.07C26.0796 17.87 27.6496 18.15 28.7796 18.9C30.3596 19.94 30.3596 21.65 28.7896 22.7Z" fill="#3DB792"/>
<path d="M14.4402 15.77C14.5102 15.76 14.5802 15.76 14.6502 15.77C16.2002 15.72 17.4302 14.45 17.4302 12.89C17.4302 11.29 16.1402 10 14.5402 10C12.9502 10 11.6602 11.29 11.6602 12.89C11.6602 14.45 12.8902 15.72 14.4402 15.77Z" fill="#3DB792"/>
<path d="M14.5511 20.85C14.5511 21.82 14.7611 22.74 15.1411 23.57C13.7311 23.72 12.2611 23.42 11.1811 22.71C9.60109 21.66 9.60109 19.95 11.1811 18.9C12.2511 18.18 13.7611 17.89 15.1811 18.05C14.7711 18.89 14.5511 19.84 14.5511 20.85Z" fill="#3DB792"/>
<path d="M20.1208 23.87C20.0408 23.86 19.9508 23.86 19.8608 23.87C18.0208 23.81 16.5508 22.3 16.5508 20.44C16.5608 18.54 18.0908 17 20.0008 17C21.9008 17 23.4408 18.54 23.4408 20.44C23.4308 22.3 21.9708 23.81 20.1208 23.87Z" fill="#3DB792"/>
<path d="M16.8708 25.94C15.3608 26.95 15.3608 28.61 16.8708 29.61C18.5908 30.76 21.4108 30.76 23.1308 29.61C24.6408 28.6 24.6408 26.94 23.1308 25.94C21.4208 24.79 18.6008 24.79 16.8708 25.94Z" fill="#3DB792"/>
</svg>
