<svg width="40" height="40" viewBox="0 0 40 40" fill="none" xmlns="http://www.w3.org/2000/svg">
<rect width="40" height="40" rx="10" fill="#3DB792" fill-opacity="0.2"/>
<path d="M15.6505 28.91C15.6205 28.91 15.5805 28.93 15.5505 28.93C13.6105 27.97 12.0305 26.38 11.0605 24.44C11.0605 24.41 11.0805 24.37 11.0805 24.34C12.3005 24.7 13.5605 24.97 14.8105 25.18C15.0305 26.44 15.2905 27.69 15.6505 28.91Z" fill="#3DB792"/>
<path d="M28.9391 24.45C27.9491 26.44 26.2991 28.05 24.2891 29.02C24.6691 27.75 24.9891 26.47 25.1991 25.18C26.4591 24.97 27.6991 24.7 28.9191 24.34C28.9091 24.38 28.9391 24.42 28.9391 24.45Z" fill="#3DB792"/>
<path d="M29.0191 15.71C27.7591 15.33 26.4891 15.02 25.1991 14.8C24.9891 13.51 24.6791 12.23 24.2891 10.98C26.3591 11.97 28.0291 13.64 29.0191 15.71Z" fill="#3DB792"/>
<path d="M15.6505 11.0901C15.2905 12.3101 15.0305 13.5501 14.8205 14.8101C13.5305 15.0101 12.2505 15.3301 10.9805 15.7101C11.9505 13.7001 13.5605 12.0501 15.5505 11.0601C15.5805 11.0601 15.6205 11.0901 15.6505 11.0901Z" fill="#3DB792"/>
<path d="M23.4898 14.59C21.1698 14.33 18.8298 14.33 16.5098 14.59C16.7598 13.22 17.0798 11.85 17.5298 10.53C17.5498 10.45 17.5398 10.39 17.5498 10.31C18.3398 10.12 19.1498 10 19.9998 10C20.8398 10 21.6598 10.12 22.4398 10.31C22.4498 10.39 22.4498 10.45 22.4698 10.53C22.9198 11.86 23.2398 13.22 23.4898 14.59Z" fill="#3DB792"/>
<path d="M14.59 23.49C13.21 23.24 11.85 22.92 10.53 22.47C10.45 22.45 10.39 22.46 10.31 22.45C10.12 21.66 10 20.85 10 20C10 19.16 10.12 18.34 10.31 17.56C10.39 17.55 10.45 17.55 10.53 17.53C11.86 17.09 13.21 16.76 14.59 16.51C14.34 18.83 14.34 21.17 14.59 23.49Z" fill="#3DB792"/>
<path d="M30.0002 20C30.0002 20.85 29.8802 21.66 29.6902 22.45C29.6102 22.46 29.5502 22.45 29.4702 22.47C28.1402 22.91 26.7802 23.24 25.4102 23.49C25.6702 21.17 25.6702 18.83 25.4102 16.51C26.7802 16.76 28.1502 17.08 29.4702 17.53C29.5502 17.55 29.6102 17.56 29.6902 17.56C29.8802 18.35 30.0002 19.16 30.0002 20Z" fill="#3DB792"/>
<path d="M23.4898 25.41C23.2398 26.79 22.9198 28.15 22.4698 29.47C22.4498 29.55 22.4498 29.61 22.4398 29.69C21.6598 29.88 20.8398 30 19.9998 30C19.1498 30 18.3398 29.88 17.5498 29.69C17.5398 29.61 17.5498 29.55 17.5298 29.47C17.0898 28.14 16.7598 26.79 16.5098 25.41C17.6698 25.54 18.8298 25.63 19.9998 25.63C21.1698 25.63 22.3398 25.54 23.4898 25.41Z" fill="#3DB792"/>
<path d="M23.7633 23.7633C21.2622 24.0789 18.7378 24.0789 16.2367 23.7633C15.9211 21.2622 15.9211 18.7378 16.2367 16.2367C18.7378 15.9211 21.2622 15.9211 23.7633 16.2367C24.0789 18.7378 24.0789 21.2622 23.7633 23.7633Z" fill="#3DB792"/>
</svg>
