<svg width="40" height="40" viewBox="0 0 40 40" fill="none" xmlns="http://www.w3.org/2000/svg">
<path d="M18.6527 23.4435L16.4751 25.6497C16.016 26.1148 15.2862 26.1148 14.8154 25.6616C14.6859 25.5304 14.5564 25.4112 14.4269 25.28C13.2145 24.0397 12.1198 22.7399 11.1428 21.3804C10.1776 20.0209 9.40074 18.6614 8.83574 17.3138C8.2825 15.9543 8 14.6544 8 13.4142C8 12.6032 8.14125 11.8281 8.42375 11.1125C8.70626 10.3851 9.15355 9.71727 9.77741 9.12099C10.5308 8.36969 11.3547 8 12.2258 8C12.5554 8 12.8849 8.07155 13.1792 8.21466C13.4853 8.35776 13.756 8.57242 13.9679 8.88248L16.6987 12.7821C16.9106 13.0802 17.0636 13.3545 17.1696 13.6169C17.2755 13.8673 17.3344 14.1178 17.3344 14.3443C17.3344 14.6306 17.252 14.9168 17.0872 15.1911C16.9341 15.4653 16.7105 15.7515 16.428 16.0378L15.5334 16.9799C15.4039 17.111 15.3451 17.2661 15.3451 17.4569C15.3451 17.5523 15.3568 17.6358 15.3804 17.7312C15.4157 17.8266 15.451 17.8981 15.4745 17.9697C15.6864 18.3632 16.0513 18.876 16.5692 19.4961C17.0989 20.1163 17.6639 20.7483 18.276 21.3804C18.3937 21.4996 18.5232 21.6189 18.6409 21.7381C19.1118 22.2032 19.1235 22.9664 18.6527 23.4435Z" fill="white"/>
<path d="M32 27.3894C32 27.7412 31.9394 28.1055 31.8181 28.4573C31.7817 28.5578 31.7454 28.6583 31.6968 28.7588C31.4907 29.2111 31.2239 29.6382 30.8723 30.0402C30.2781 30.7186 29.6233 31.2085 28.8836 31.5226C28.8715 31.5226 28.8593 31.5352 28.8472 31.5352C28.1318 31.8367 27.3557 32 26.519 32C25.2821 32 23.9604 31.6985 22.5659 31.0829C21.1714 30.4673 19.7769 29.6382 18.3945 28.5955C17.9216 28.2312 17.4487 27.8668 17 27.4774L20.9652 23.3693C21.3048 23.6332 21.6079 23.8342 21.8626 23.9724C21.9232 23.9975 21.996 24.0352 22.0808 24.0729C22.1778 24.1106 22.2749 24.1231 22.384 24.1231C22.5901 24.1231 22.7478 24.0477 22.8812 23.9095L23.8027 22.9673C24.1059 22.6533 24.3969 22.4146 24.6758 22.2638C24.9547 22.0879 25.2336 22 25.5368 22C25.7672 22 26.0097 22.0503 26.2765 22.1633C26.5433 22.2764 26.8222 22.4397 27.1253 22.6533L31.139 25.6055C31.4543 25.8317 31.6726 26.0955 31.806 26.4095C31.9272 26.7236 32 27.0377 32 27.3894Z" fill="white"/>
</svg>
