<svg width="40" height="40" viewBox="0 0 40 40" fill="none" xmlns="http://www.w3.org/2000/svg">
<path d="M30.998 21.7387C31.272 20.0037 31.1317 18.2284 30.5886 16.558C30.0454 14.8876 29.1148 13.3693 27.8728 12.1273C26.6309 10.8853 25.1127 9.95476 23.4424 9.4117C21.7721 8.86864 19.997 8.72847 18.2622 9.00265C16.973 8.20696 15.4529 7.86969 13.9482 8.04543C12.4434 8.22117 11.042 8.89964 9.97078 9.97101C8.89953 11.0424 8.22115 12.444 8.04543 13.9489C7.8697 15.4538 8.20694 16.974 9.00253 18.2634C8.72812 19.9985 8.86808 21.7738 9.41098 23.4445C9.95388 25.1151 10.8843 26.6335 12.1262 27.8757C13.3682 29.1179 14.8863 30.0486 16.5567 30.5917C18.2271 31.1348 20.0023 31.275 21.7372 31.0007C22.764 31.632 23.9736 32 25.271 32C26.4688 32.0001 27.6449 31.6804 28.6778 31.0739C29.7108 30.4674 30.5631 29.5962 31.1468 28.5502C31.7306 27.5042 32.0246 26.3213 31.9984 25.1236C31.9722 23.926 31.6269 22.7571 30.998 21.7375V21.7387ZM25.2866 25.065C24.8153 25.7432 24.1239 26.2723 23.2185 26.6535C22.3131 27.0359 21.243 27.2259 20.0057 27.2259C18.5243 27.2259 17.2967 26.9662 16.3288 26.4431C15.6582 26.0822 15.0839 25.566 14.6538 24.9375C14.2246 24.3098 14.0057 23.6941 14.0057 23.0952C14.0057 22.7417 14.1404 22.4338 14.4025 22.1825C14.6682 21.9299 15.0097 21.8037 15.4125 21.8037C15.7432 21.8037 16.027 21.9035 16.259 22.1007C16.4875 22.2979 16.6799 22.5841 16.8374 22.9617C17.0262 23.4006 17.2306 23.7674 17.4482 24.0584C17.6646 24.347 17.97 24.5876 18.3644 24.7764C18.7552 24.9651 19.2746 25.0601 19.9239 25.0601C20.8137 25.0601 21.5327 24.8677 22.0834 24.4877C22.6366 24.1053 22.9011 23.6387 22.9011 23.076C22.9011 22.6262 22.7592 22.2703 22.4646 21.9913C22.1688 21.7099 21.7865 21.4946 21.3103 21.3455C20.6788 21.1542 20.0384 20.9936 19.3913 20.8645C18.3139 20.6288 17.4133 20.3558 16.6835 20.0408C15.9536 19.7257 15.3716 19.2952 14.94 18.7492C14.5071 18.1997 14.2919 17.5154 14.2919 16.7049C14.2919 15.9329 14.5203 15.2426 14.9749 14.6414C15.4306 14.0389 16.0895 13.5771 16.9468 13.256C17.8029 12.9349 18.8105 12.775 19.9648 12.775C20.8883 12.775 21.6867 12.8808 22.3624 13.0937C23.0358 13.3077 23.5973 13.5903 24.0458 13.9439C24.4931 14.2986 24.8213 14.6714 25.0293 15.0622C25.2373 15.4555 25.342 15.8391 25.342 16.2131C25.342 16.5618 25.2073 16.8769 24.9452 17.1535C24.6806 17.43 24.3452 17.5707 23.9532 17.5695C23.5997 17.5695 23.3219 17.4878 23.1295 17.3158C22.942 17.1474 22.7448 16.8829 22.5319 16.5101C22.2626 15.993 21.9404 15.5902 21.5652 15.3015C21.1997 15.0189 20.5973 14.871 19.7592 14.8734C18.9837 14.8734 18.3644 15.031 17.8955 15.3424C17.4241 15.6563 17.1981 16.0219 17.1981 16.4488C17.1981 16.7181 17.2763 16.9442 17.4314 17.1378C17.5877 17.3326 17.8077 17.5022 18.0891 17.6441C18.3716 17.7884 18.6578 17.9014 18.9464 17.9808C19.2374 18.065 19.7219 18.184 20.3941 18.3416C21.237 18.5244 22.0017 18.7264 22.6895 18.9476C23.3748 19.1701 23.9604 19.4383 24.445 19.7582C24.9307 20.0768 25.3119 20.4833 25.5836 20.9739C25.8578 21.4658 25.9949 22.0658 25.9949 22.7717C25.9949 23.6231 25.7592 24.3879 25.2854 25.065H25.2866Z" fill="white"/>
</svg>
