<svg width="40" height="40" viewBox="0 0 40 40" fill="none" xmlns="http://www.w3.org/2000/svg">
<rect width="40" height="40" rx="20" fill="white" fill-opacity="0.05"/>
<path d="M24.8 17H20.75V21.44L22.82 19.37C22.97 19.22 23.16 19.15 23.35 19.15C23.54 19.15 23.73 19.22 23.88 19.37C24.17 19.66 24.17 20.14 23.88 20.43L20.53 23.78C20.24 24.07 19.76 24.07 19.47 23.78L16.12 20.43C15.83 20.14 15.83 19.66 16.12 19.37C16.41 19.08 16.89 19.08 17.18 19.37L19.25 21.44V17H15.2C12 17 10 19 10 22.2V24.79C10 28 12 30 15.2 30H24.79C27.99 30 29.99 28 29.99 24.8V22.2C30 19 28 17 24.8 17Z" fill="white"/>
<path d="M20.75 10.75C20.75 10.34 20.41 10 20 10C19.59 10 19.25 10.34 19.25 10.75V17H20.75V10.75Z" fill="white"/>
</svg>
