<svg width="28" height="32" viewBox="0 0 28 32" fill="none" xmlns="http://www.w3.org/2000/svg">
<path d="M26.9297 10.675C25.3547 3.745 19.3097 0.625 13.9997 0.625C13.9997 0.625 13.9997 0.625 13.9847 0.625C8.68965 0.625 2.62965 3.73 1.05465 10.66C-0.700345 18.4 4.03966 24.955 8.32966 29.08C9.91965 30.61 11.9597 31.375 13.9997 31.375C16.0397 31.375 18.0797 30.61 19.6547 29.08C23.9447 24.955 28.6847 18.415 26.9297 10.675ZM13.9997 18.19C11.3897 18.19 9.27466 16.075 9.27466 13.465C9.27466 10.855 11.3897 8.74 13.9997 8.74C16.6097 8.74 18.7247 10.855 18.7247 13.465C18.7247 16.075 16.6097 18.19 13.9997 18.19Z" fill="white"/>
</svg>
