<svg width="40" height="40" viewBox="0 0 40 40" fill="none" xmlns="http://www.w3.org/2000/svg">
<rect width="40" height="40" rx="20" fill="white" fill-opacity="0.05"/>
<path d="M24.19 10H15.81C12.17 10 10 12.17 10 15.81V24.18C10 27.83 12.17 30 15.81 30H24.18C27.82 30 29.99 27.83 29.99 24.19V15.81C30 12.17 27.83 10 24.19 10ZM17.94 21.27C17.26 22.29 16.32 23.12 15.22 23.67C15.12 23.72 15 23.75 14.89 23.75C14.61 23.75 14.35 23.6 14.22 23.34C14.03 22.97 14.18 22.52 14.56 22.33C15.43 21.9 16.17 21.24 16.7 20.44C16.88 20.17 16.88 19.83 16.7 19.56C16.16 18.76 15.42 18.1 14.56 17.67C14.18 17.49 14.03 17.04 14.22 16.66C14.4 16.29 14.85 16.14 15.22 16.33C16.32 16.88 17.26 17.71 17.94 18.73C18.46 19.5 18.46 20.5 17.94 21.27ZM25 23.75H21C20.59 23.75 20.25 23.41 20.25 23C20.25 22.59 20.59 22.25 21 22.25H25C25.41 22.25 25.75 22.59 25.75 23C25.75 23.41 25.41 23.75 25 23.75Z" fill="white"/>
</svg>
