<svg width="40" height="40" viewBox="0 0 40 40" fill="none" xmlns="http://www.w3.org/2000/svg">
<rect width="40" height="40" rx="20" fill="white" fill-opacity="0.1"/>
<path d="M23.1073 29.5236C23.0502 29.5236 22.9835 29.5141 22.9264 29.4951C21.0121 28.9522 19.0026 28.9522 17.0883 29.4951C16.7359 29.5903 16.3645 29.3903 16.2692 29.0379C16.1645 28.6855 16.374 28.3141 16.7264 28.2189C18.8788 27.6093 21.1454 27.6093 23.2978 28.2189C23.6502 28.3236 23.8597 28.6855 23.7549 29.0379C23.6597 29.3331 23.393 29.5236 23.1073 29.5236Z" fill="white"/>
<path fill-rule="evenodd" clip-rule="evenodd" d="M21.7459 10.6667C23.965 11.1524 25.8793 12.6286 26.8698 14.6286C28.7936 18.4952 26.9364 22.6952 23.984 24.6857V25.3524C23.9936 25.6095 24.0031 26.0857 23.6412 26.4572C23.3745 26.7238 22.984 26.8667 22.4698 26.8667H17.584C17.1936 26.8667 16.6983 26.8286 16.365 26.4857C16.0412 26.1524 16.0507 25.7429 16.0602 25.4762V24.6857C13.8317 23.1905 12.3555 20.6095 12.3555 18.1429C12.3555 15.8095 13.3936 13.6286 15.2221 12.1714C17.0412 10.7048 19.4221 10.1524 21.7459 10.6667ZM21.3741 21.6726H20.7141V22.0526C20.7141 22.4626 20.3741 22.8026 19.9641 22.8026C19.5541 22.8026 19.2141 22.4626 19.2141 22.0526V21.6726H18.1641C17.7541 21.6726 17.4141 21.3326 17.4141 20.9226V18.6726V16.4226C17.4141 16.0126 17.7541 15.6726 18.1641 15.6726H19.2141V15.2926C19.2141 14.8826 19.5541 14.5426 19.9641 14.5426C20.3741 14.5426 20.7141 14.8826 20.7141 15.2926V15.6726H20.9741C21.9741 15.6726 22.8541 16.5526 22.8541 17.5526C22.8541 17.8426 22.7841 18.1126 22.6641 18.3626C23.1241 18.7026 23.4141 19.2226 23.4141 19.8026C23.4141 20.8326 22.5041 21.6726 21.3741 21.6726ZM21.3541 17.5425C21.3541 17.3925 21.1841 17.1625 20.9741 17.1625H18.9141V17.9125H20.9741C21.1841 17.9225 21.3541 17.7525 21.3541 17.5425ZM21.3741 19.4225H18.9141V20.1725H21.3841C21.7041 20.1725 21.9241 19.9725 21.9241 19.7925C21.9241 19.6125 21.6941 19.4225 21.3741 19.4225Z" fill="white"/>
</svg>
