<svg width="40" height="40" viewBox="0 0 40 40" fill="none" xmlns="http://www.w3.org/2000/svg">
<rect width="40" height="40" rx="20" fill="white" fill-opacity="0.1"/>
<path d="M30.9985 23.2202C30.5885 23.2202 30.2485 23.5602 30.2485 23.9702C30.2485 26.9302 28.1885 29.4102 25.4185 30.0602L25.6885 29.6102C25.8985 29.2502 25.7885 28.7902 25.4285 28.5802C25.0785 28.3702 24.6085 28.4802 24.3985 28.8402L23.3485 30.5902C23.2085 30.8202 23.2085 31.1102 23.3385 31.3402C23.4685 31.5802 23.7185 31.7202 23.9885 31.7202C28.2585 31.7202 31.7385 28.2402 31.7385 23.9702C31.7485 23.5602 31.4085 23.2202 30.9985 23.2202Z" fill="white"/>
<path d="M16 8.22021C11.73 8.22021 8.25 11.7002 8.25 15.9702C8.25 16.3802 8.59 16.7202 9 16.7202C9.41 16.7202 9.75 16.3802 9.75 15.9702C9.75 13.0102 11.81 10.5302 14.58 9.88021L14.31 10.3302C14.1 10.6902 14.21 11.1502 14.57 11.3602C14.92 11.5702 15.39 11.4602 15.6 11.1002L16.65 9.35021C16.78 9.12021 16.79 8.84021 16.65 8.60021C16.52 8.37021 16.27 8.22021 16 8.22021Z" fill="white"/>
<path d="M29.4983 16.67C29.4983 19.75 27.2583 22.29 24.3283 22.76C24.3283 22.75 24.3283 22.75 24.3283 22.74C24.0383 19.01 21.0183 15.97 17.2383 15.67C17.7083 12.74 20.2483 10.5 23.3283 10.5C26.7383 10.5 29.4983 13.26 29.4983 16.67Z" fill="white"/>
<path d="M17.8111 22.1998C17.8111 22.0498 17.6411 21.8198 17.4311 21.8198H15.3711V22.5698H17.4311C17.6411 22.5798 17.8111 22.4098 17.8111 22.1998Z" fill="white"/>
<path d="M17.8311 24.0801H17.4311H15.3711V24.8301H17.8411C18.1611 24.8301 18.3811 24.6301 18.3811 24.4501C18.3811 24.2701 18.1511 24.0801 17.8311 24.0801Z" fill="white"/>
<path d="M22.83 22.8499C22.6 19.8199 20.18 17.3999 17.15 17.1699C16.99 17.1599 16.84 17.1499 16.67 17.1499C13.26 17.1499 10.5 19.9099 10.5 23.3299C10.5 26.7399 13.26 29.4999 16.67 29.4999C20.08 29.4999 22.85 26.7399 22.85 23.3299C22.85 23.1599 22.84 23.0099 22.83 22.8499ZM17.83 26.3299H17.17V26.7099C17.17 27.1199 16.83 27.4599 16.42 27.4599C16.01 27.4599 15.67 27.1199 15.67 26.7099V26.3299H14.62C14.21 26.3299 13.87 25.9899 13.87 25.5799V23.3299V21.0799C13.87 20.6699 14.21 20.3299 14.62 20.3299H15.67V19.9499C15.67 19.5399 16.01 19.1999 16.42 19.1999C16.83 19.1999 17.17 19.5399 17.17 19.9499V20.3299H17.43C18.43 20.3299 19.31 21.2099 19.31 22.2099C19.31 22.4999 19.24 22.7699 19.12 23.0199C19.58 23.3599 19.87 23.8799 19.87 24.4599C19.87 25.4899 18.96 26.3299 17.83 26.3299Z" fill="white"/>
</svg>
