<svg width="40" height="40" viewBox="0 0 40 40" fill="none" xmlns="http://www.w3.org/2000/svg">
<rect width="40" height="40" rx="20" fill="white" fill-opacity="0.1"/>
<g clip-path="url(#clip0_3463_33079)">
<path d="M20.2422 16.6128L20.2516 14.8356C20.7578 14.8356 22.3422 14.686 22.3328 15.7336C22.3328 16.7437 20.7484 16.6128 20.2422 16.6128ZM22.7359 18.5021C22.7359 17.3517 20.8422 17.52 20.2422 17.5107L20.2328 19.4749C20.8422 19.4749 22.7359 19.6058 22.7359 18.5021ZM13.6047 17.2114C13.6047 13.3672 16.6891 10.2432 20.5422 10.2432C24.3953 10.2432 27.4984 13.3485 27.4984 17.1833C27.4984 21.0275 24.3672 24.1235 20.5422 24.1235C16.7172 24.1235 13.6047 21.0275 13.6047 17.2114ZM18.7891 16.8279C18.7609 16.8279 18.7234 16.8279 18.6953 16.8279L18.6859 19.1662C18.6672 19.2785 18.6016 19.4562 18.3484 19.4562C18.3578 19.4655 17.7016 19.4562 17.7016 19.4562L17.5234 20.5224H18.6859C18.9016 20.5224 19.1172 20.5318 19.3234 20.5318L19.3141 22.0096H20.2047L20.2141 20.5505C20.4578 20.5599 20.6922 20.5599 20.9266 20.5599L20.9172 22.019H21.8078L21.8172 20.5412C23.3172 20.457 24.3672 20.0828 24.5078 18.6798C24.6203 17.5481 24.0859 17.043 23.2328 16.8372C23.7484 16.5754 24.0766 16.117 24.0016 15.3407C23.9078 14.2838 22.9891 13.9284 21.8453 13.8255L21.8547 12.3664H20.9641L20.9547 13.7881C20.7203 13.7881 20.4766 13.7881 20.2422 13.7974L20.2516 12.3664H19.3609L19.3422 13.8161C19.1453 13.8161 18.9578 13.8255 18.7703 13.8255L17.5422 13.8161V14.7702C17.5422 14.7702 18.1984 14.7608 18.1891 14.7702C18.5547 14.7702 18.6672 14.9853 18.7047 15.163L18.6953 16.8279C18.7234 16.8279 18.7516 16.8279 18.7891 16.8279ZM18.1141 30.624H22.1453C23.1391 30.624 24.0672 30.1657 24.6859 29.5203L30.0484 24.1702C30.4703 23.7493 30.4891 23.0385 30.0484 22.5989C29.6359 22.1873 28.9422 22.178 28.4922 22.6269L25.2016 25.9006C25.2766 26.1064 25.3328 26.3589 25.3234 26.574C25.3234 27.0604 25.1359 27.5281 24.7891 27.8741C24.4422 28.2202 23.9828 28.4166 23.4859 28.4073L18.8359 28.4166C18.6297 28.4166 18.4609 28.2576 18.4609 28.0425C18.4609 27.8367 18.6203 27.6684 18.8172 27.6871H23.4859C24.0953 27.6871 24.5922 27.1914 24.5922 26.5834C24.5922 25.9754 24.0953 25.4797 23.4859 25.4797L17.6828 25.461C16.7172 25.461 15.8547 25.8538 15.2266 26.4805L9.60156 32.2608H15.7797L16.7828 31.1665C17.1297 30.8204 17.5984 30.624 18.1141 30.624Z" fill="white"/>
</g>
<defs>
<clipPath id="clip0_3463_33079">
<rect width="24" height="24" fill="white" transform="translate(8 8)"/>
</clipPath>
</defs>
</svg>
