<svg width="40" height="40" viewBox="0 0 40 40" fill="none" xmlns="http://www.w3.org/2000/svg">
<rect width="40" height="40" rx="20" fill="white" fill-opacity="0.05"/>
<path d="M22.1317 19.34C22.5217 17.7 21.0917 16.27 19.4517 16.66C18.6817 16.85 18.0517 17.48 17.8617 18.25C17.4717 19.89 18.9017 21.32 20.5417 20.93C21.3217 20.74 21.9517 20.11 22.1317 19.34Z" fill="white"/>
<path d="M14.0209 25.97C13.8409 25.97 13.6509 25.9 13.5109 25.77C11.5709 23.97 10.4609 21.43 10.4609 18.79C10.4609 13.53 14.7409 9.25 20.0009 9.25C25.2609 9.25 29.5409 13.53 29.5409 18.79C29.5409 21.45 28.4709 23.91 26.5309 25.74C26.2309 26.02 25.7509 26.01 25.4709 25.71C25.1909 25.41 25.2009 24.93 25.5009 24.65C27.1409 23.11 28.0409 21.04 28.0409 18.8C28.0409 14.37 24.4309 10.76 20.0009 10.76C15.5709 10.76 11.9609 14.37 11.9609 18.8C11.9609 21.06 12.8709 23.14 14.5309 24.68C14.8309 24.96 14.8509 25.44 14.5709 25.74C14.4209 25.89 14.2209 25.97 14.0209 25.97Z" fill="white"/>
<path d="M23.9995 23.3C23.8195 23.3 23.6295 23.23 23.4895 23.1C23.1895 22.82 23.1695 22.34 23.4595 22.04C24.2895 21.16 24.7495 20 24.7495 18.8C24.7495 16.18 22.6195 14.06 20.0095 14.06C17.3995 14.06 15.2695 16.19 15.2695 18.8C15.2695 20.01 15.7295 21.16 16.5595 22.04C16.8395 22.34 16.8295 22.82 16.5295 23.1C16.2295 23.39 15.7495 23.37 15.4695 23.07C14.3795 21.91 13.7695 20.39 13.7695 18.8C13.7695 15.36 16.5695 12.56 20.0095 12.56C23.4495 12.56 26.2495 15.36 26.2495 18.8C26.2495 20.39 25.6495 21.91 24.5495 23.07C24.3995 23.22 24.1995 23.3 23.9995 23.3Z" fill="white"/>
<path d="M18.2989 24.66L16.8589 26.45C15.7189 27.88 16.7389 30 18.5589 30H21.4289C23.2589 30 24.2789 27.88 23.1289 26.46L21.6889 24.67C20.8289 23.57 19.1689 23.57 18.2989 24.66Z" fill="white"/>
</svg>
