<svg width="40" height="40" viewBox="0 0 40 40" fill="none" xmlns="http://www.w3.org/2000/svg">
<rect width="40" height="40" rx="20" fill="white" fill-opacity="0.05"/>
<path d="M23.2592 30C23.1992 30 23.1292 29.99 23.0692 29.97C21.0592 29.4 18.9492 29.4 16.9392 29.97C16.5692 30.07 16.1792 29.86 16.0792 29.49C15.9692 29.12 16.1892 28.73 16.5592 28.63C18.8192 27.99 21.1992 27.99 23.4592 28.63C23.8292 28.74 24.0492 29.12 23.9392 29.49C23.8392 29.8 23.5592 30 23.2592 30Z" fill="white"/>
<path d="M27.2087 14.36C26.1687 12.26 24.1587 10.71 21.8287 10.2C19.3887 9.66001 16.8888 10.24 14.9787 11.78C13.0588 13.31 11.9688 15.6 11.9688 18.05C11.9688 20.64 13.5188 23.35 15.8588 24.92V25.75C15.8488 26.03 15.8388 26.46 16.1788 26.81C16.5287 27.17 17.0487 27.21 17.4587 27.21H22.5887C23.1287 27.21 23.5387 27.06 23.8187 26.78C24.1987 26.39 24.1888 25.89 24.1788 25.62V24.92C27.2787 22.83 29.2287 18.42 27.2087 14.36ZM21.7188 19.62L20.6487 21.48C20.5087 21.72 20.2587 21.86 19.9987 21.86C19.8687 21.86 19.7387 21.83 19.6287 21.76C19.2687 21.55 19.1488 21.09 19.3488 20.74L20.1987 19.26H19.3587C18.8587 19.26 18.4487 19.04 18.2287 18.67C18.0087 18.29 18.0287 17.83 18.2787 17.39L19.3488 15.53C19.5588 15.17 20.0187 15.05 20.3687 15.25C20.7287 15.46 20.8487 15.92 20.6487 16.27L19.7987 17.75H20.6388C21.1388 17.75 21.5487 17.97 21.7688 18.34C21.9888 18.72 21.9688 19.19 21.7188 19.62Z" fill="white"/>
</svg>
