<svg width="100" height="100" viewBox="0 0 100 100" fill="none" xmlns="http://www.w3.org/2000/svg">
<path d="M65.7786 59.2001V68.4001L57.8086 63.8001V54.6001L65.7786 59.2001Z" fill="#0056FD"/>
<path d="M81.7083 49.9999V59.1999L73.7383 54.5999V45.3999L81.7083 49.9999Z" fill="#0056FD"/>
<path d="M65.7786 77.6V86.81L57.8086 82.2V73.01L65.7786 77.6Z" fill="#0056FD"/>
<path d="M81.7083 68.4001V77.6L73.7383 73.01V63.8L81.7083 68.4001Z" fill="#0056FD"/>
<path d="M73.7393 17.8V27.0001L65.7793 31.6V22.4001L73.7393 17.8Z" fill="#003ACF"/>
<path d="M57.8098 27V36.2L49.8398 40.8V31.6L57.8098 27Z" fill="#003ACF"/>
<path d="M41.8684 36.2V45.4L33.8984 50V40.8L41.8684 36.2Z" fill="#003ACF"/>
<path d="M41.8684 54.6001V63.8001L33.8984 68.4001V59.2001L41.8684 54.6001Z" fill="#003ACF"/>
<path d="M41.8684 73.01V82.2L33.8984 86.81V77.6L41.8684 73.01Z" fill="#003ACF"/>
<path d="M57.8111 82.2001L49.8411 86.8101L41.8711 82.2001L49.8411 77.6001L57.8111 82.2001Z" fill="#0386FE"/>
<path d="M73.7386 73.0099L65.7786 77.5999L57.8086 73.0099L65.7786 68.3999L73.7386 73.0099Z" fill="#0386FE"/>
<path d="M89.6783 63.8L81.7083 68.4L73.7383 63.8L81.7083 59.2L89.6783 63.8Z" fill="#0386FE"/>
<path d="M89.6783 45.4001L81.7083 50.0001L73.7383 45.4001L81.7083 40.8L89.6783 45.4001Z" fill="#0386FE"/>
<path d="M73.7386 54.6L65.7786 59.2L57.8086 54.6L65.7786 50L73.7386 54.6Z" fill="#0386FE"/>
<path d="M57.8111 63.8L49.8411 68.4L41.8711 63.8L49.8411 59.2L57.8111 63.8Z" fill="#0386FE"/>
<path d="M41.8695 73.0099L33.8995 77.5999L25.9395 73.0099L33.8995 68.3999L41.8695 73.0099Z" fill="#0386FE"/>
<path d="M41.8695 54.6L33.8995 59.2L25.9395 54.6L33.8995 50L41.8695 54.6Z" fill="#0386FE"/>
<path d="M25.94 63.8L17.97 68.4L10 63.8L17.97 59.2L25.94 63.8Z" fill="#0386FE"/>
<path d="M25.94 45.4001L17.97 50.0001L10 45.4001L17.97 40.8L25.94 45.4001Z" fill="#0386FE"/>
<path d="M49.8411 31.6V40.8L41.8711 36.2V27L49.8411 31.6Z" fill="#0056FD"/>
<path d="M65.7786 40.8V50L57.8086 45.4V36.2L65.7786 40.8Z" fill="#0056FD"/>
<path d="M81.7083 31.6V40.8L73.7383 36.2V27L81.7083 31.6Z" fill="#0056FD"/>
<path d="M65.7786 22.4001V31.6L57.8086 27.0001V17.8L65.7786 22.4001Z" fill="#0056FD"/>
<path d="M49.8411 13.2001V22.4001L41.8711 17.8001V8.6001L49.8411 13.2001Z" fill="#0056FD"/>
<path d="M33.8995 22.4001V31.6L25.9395 27.0001V17.8L33.8995 22.4001Z" fill="#0056FD"/>
<path d="M25.9388 63.8V73.01L17.9688 77.6V68.4001L25.9388 63.8Z" fill="#003ACF"/>
<path d="M25.9388 45.3999V54.5999L17.9688 59.1999V49.9999L25.9388 45.3999Z" fill="#003ACF"/>
<path d="M57.8098 8.6001V17.8001L49.8398 22.4001V13.2001L57.8098 8.6001Z" fill="#003ACF"/>
<path d="M41.8684 17.8V27.0001L33.8984 31.6V22.4001L41.8684 17.8Z" fill="#003ACF"/>
<path d="M25.9388 27V36.2L17.9688 40.8V31.59L25.9388 27Z" fill="#003ACF"/>
<path d="M17.97 31.59V40.8L10 36.2V27L17.97 31.59Z" fill="#565864"/>
<path d="M33.8995 40.8V50L25.9395 45.4V36.2L33.8995 40.8Z" fill="#565864"/>
<path d="M49.8411 49.9999V59.1999L41.8711 54.5999V45.3999L49.8411 49.9999Z" fill="#565864"/>
<path d="M49.8411 68.4001V77.6L41.8711 73.01V63.8L49.8411 68.4001Z" fill="#565864"/>
<path d="M33.8995 59.2001V68.4001L25.9395 63.8001V54.6001L33.8995 59.2001Z" fill="#565864"/>
<path d="M17.97 49.9999V59.1999L10 54.5999V45.3999L17.97 49.9999Z" fill="#565864"/>
<path d="M17.97 68.4001V77.6L10 73.01V63.8L17.97 68.4001Z" fill="#565864"/>
<path d="M33.8995 77.6V86.81L25.9395 82.21V73.01L33.8995 77.6Z" fill="#565864"/>
<path d="M49.8411 86.81V96L41.8711 91.4V82.2L49.8411 86.81Z" fill="#565864"/>
<path d="M89.6809 63.8V73.01L81.7109 77.6V68.4001L89.6809 63.8Z" fill="#19253E"/>
<path d="M73.7393 73.01V82.2L65.7793 86.81V77.6L73.7393 73.01Z" fill="#19253E"/>
<path d="M57.8098 82.2V91.4L49.8398 96V86.81L57.8098 82.2Z" fill="#19253E"/>
<path d="M57.8098 63.8V73.01L49.8398 77.6V68.4001L57.8098 63.8Z" fill="#19253E"/>
<path d="M73.7393 54.6001V63.8001L65.7793 68.4001V59.2001L73.7393 54.6001Z" fill="#19253E"/>
<path d="M89.6809 45.3999V54.5999L81.7109 59.1999V49.9999L89.6809 45.3999Z" fill="#19253E"/>
<path d="M89.6809 27V36.2L81.7109 40.8V31.6L89.6809 27Z" fill="#19253E"/>
<path d="M73.7393 36.2V45.4L65.7793 50V40.8L73.7393 36.2Z" fill="#19253E"/>
<path d="M57.8098 45.3999V54.5999L49.8398 59.1999V49.9999L57.8098 45.3999Z" fill="#19253E"/>
<path d="M57.8111 45.4001L49.8411 50.0001L41.8711 45.4001L49.8411 40.8L57.8111 45.4001Z" fill="#828695"/>
<path d="M89.6783 26.9999L81.7083 31.5999L73.7383 26.9999L81.7083 22.3999L89.6783 26.9999Z" fill="#828695"/>
<path d="M73.7386 36.2001L65.7786 40.8001L57.8086 36.2001L65.7786 31.6001L73.7386 36.2001Z" fill="#828695"/>
<path d="M73.7386 17.8L65.7786 22.4L57.8086 17.8L65.7786 13.2L73.7386 17.8Z" fill="#828695"/>
<path d="M57.8111 26.9999L49.8411 31.5999L41.8711 26.9999L49.8411 22.3999L57.8111 26.9999Z" fill="#828695"/>
<path d="M41.8695 36.2001L33.8995 40.8001L25.9395 36.2001L33.8995 31.6001L41.8695 36.2001Z" fill="#828695"/>
<path d="M57.8111 8.59998L49.8411 13.2L41.8711 8.59998L49.8411 4L57.8111 8.59998Z" fill="#828695"/>
<path d="M41.8695 17.8L33.8995 22.4L25.9395 17.8V17.7899L33.8995 13.2L41.8695 17.8Z" fill="#828695"/>
<path d="M25.94 26.9999L17.97 31.5899L10 26.9999L17.97 22.3999L25.94 26.9999Z" fill="#828695"/>
</svg>
