<svg width="100" height="100" viewBox="0 0 100 100" fill="none" xmlns="http://www.w3.org/2000/svg">
<path d="M89.4501 26.93L81.5001 31.52L73.5601 36.1L65.6101 31.52L57.6701 26.93L41.7801 17.7599L33.8301 13.17L49.7201 4L65.6101 13.17L73.5601 17.7599L89.4501 26.93Z" fill="#828695"/>
<path d="M49.72 49.8597V95.7297L41.78 91.1396L33.83 86.5597V49.8597L25.89 45.2797V81.9697L17.94 77.3796L10 72.7997V26.9297L17.94 31.5197L33.83 40.6896L41.78 45.2797L49.72 49.8597Z" fill="#565864"/>
<path d="M89.4487 26.9297V72.7997L81.4987 77.3796L73.5587 81.9697L65.6088 86.5597L57.6688 91.1396L49.7188 95.7297V49.8597L57.6688 45.2797L65.6088 40.6896V77.3796L73.5587 72.7997V36.0997L81.4987 31.5197L89.4487 26.9297Z" fill="#19253E"/>
<path d="M73.5593 72.8L65.6094 77.3799V68.21L73.5593 72.8Z" fill="#0386FE"/>
<path d="M33.8306 49.8598V77.3798L25.8906 81.9698V45.2798L33.8306 49.8598Z" fill="#003ACF"/>
<path d="M73.5601 36.0999V72.7999L65.6101 68.2099V40.6899L49.7201 31.5199L41.7801 26.9299L33.8301 22.3399V13.1699L41.7801 17.7599L57.6701 26.9299L65.6101 31.5199L73.5601 36.0999Z" fill="#0056FD"/>
<path d="M65.61 40.6898L57.67 45.2798L49.72 49.8598L41.78 45.2798L33.83 40.6898L17.94 31.5198L10 26.9298L25.89 17.7598L41.78 26.9298L49.72 31.5198L65.61 40.6898Z" fill="#828695"/>
</svg>
