<svg width="100" height="100" viewBox="0 0 100 100" fill="none" xmlns="http://www.w3.org/2000/svg">
<path d="M89.84 27.05L81.86 31.66L73.87 36.27L65.89 40.88L57.9 45.48L49.92 50.1L41.94 45.48L33.95 40.88L25.97 36.27L17.98 31.66L10 27.05L17.98 22.44L25.97 17.83L41.94 8.62L49.92 4L57.9 8.62L73.87 17.83L81.86 22.44L89.84 27.05Z" fill="#828695"/>
<path d="M89.84 63.9301L81.86 68.5301L73.87 73.1401L65.89 77.7601L57.9 82.36L49.92 86.97L41.94 82.36L33.95 77.7601L25.97 73.1401L17.98 68.5301L10 63.9301L17.98 59.3101L25.97 63.9301L33.95 68.5301L41.94 73.1401L49.92 77.7601L57.9 73.1401L65.89 68.5301L73.87 63.9301L81.86 59.3101L89.84 63.9301Z" fill="#0386FE"/>
<path d="M89.84 45.4801L81.86 50.1001L73.87 54.7101L65.89 59.3101L57.9 63.9301L49.92 68.5301L41.94 63.9301L33.95 59.3101L25.97 54.7101L17.98 50.1001L10 45.4801L17.98 40.8801L25.97 45.4801L33.95 50.1001L41.94 54.7101L49.92 59.3101L57.9 54.7101L65.89 50.1001L73.87 45.4801L81.86 40.8801L89.84 45.4801Z" fill="#0386FE"/>
<path d="M49.92 50.1001V59.3101L41.94 54.7101L33.95 50.1001L25.97 45.4801L17.98 40.8801L10 36.2701V27.05L17.98 31.66L25.97 36.2701L33.95 40.8801L41.94 45.4801L49.92 50.1001Z" fill="#565864"/>
<path d="M49.92 68.53V77.76L41.94 73.14L33.95 68.53L25.97 63.93L17.98 59.31L10 54.71V45.48L17.98 50.1L25.97 54.71L33.95 59.31L41.94 63.93L49.92 68.53Z" fill="#565864"/>
<path d="M49.92 86.9702V96.1902L41.94 91.5802L33.95 86.9702L25.97 82.3602L17.98 77.7602L10 73.1502V63.9302L17.98 68.5302L25.97 73.1402L33.95 77.7602L41.94 82.3602L49.92 86.9702Z" fill="#565864"/>
<path d="M89.8399 63.9302V73.1502L81.8599 77.7602L73.8699 82.3602L65.8899 86.9702L57.8999 91.5802L49.9199 96.1902V86.9702L57.8999 82.3602L65.8899 77.7602L73.8699 73.1402L81.8599 68.5302L89.8399 63.9302Z" fill="#19253E"/>
<path d="M89.8399 45.48V54.71L81.8599 59.31L73.8699 63.93L65.8899 68.53L57.8999 73.14L49.9199 77.76V68.53L57.8999 63.93L65.8899 59.31L73.8699 54.71L81.8599 50.1L89.8399 45.48Z" fill="#19253E"/>
<path d="M89.8399 27.05V36.2701L81.8599 40.8801L73.8699 45.4801L65.8899 50.1001L57.8999 54.7101L49.9199 59.3101V50.1001L57.8999 45.4801L65.8899 40.8801L73.8699 36.2701L81.8599 31.66L89.8399 27.05Z" fill="#19253E"/>
</svg>
