<svg width="100" height="100" viewBox="0 0 100 100" fill="none" xmlns="http://www.w3.org/2000/svg">
<path d="M50 84.8199V96.3699L40 90.5999L30 84.8298V84.8199L20 79.0499L10 73.2798V27.0898L20 32.8598V67.4998L30 73.2798L40 79.0499L50 84.8199Z" fill="#565864"/>
<path d="M90 27.09L80 32.86L70 27.09L60 21.32L50 15.54L40 21.32L30 27.09L20 32.86L10 27.09L20 21.32L30 15.54L50 4L70 15.54V15.55L90 27.09Z" fill="#828695"/>
<path d="M90 27.0898V73.2798L80 79.0499L70 84.8199V84.8298L60 90.5999L50 96.3699V84.8199L60 79.0499L70 73.2798L80 67.5099V32.8598L90 27.0898Z" fill="#19253E"/>
<path d="M80 67.4999V67.5099L70 73.2799L60 79.0499L50 84.8199L40 79.0499L30 73.2799L20 67.4999L30 61.7299L50 50.1899L70 61.7299L80 67.4999Z" fill="#0386FE"/>
<path d="M80 32.86V67.5L70 61.73L50 50.19V15.54L60 21.32L70 27.09L80 32.86Z" fill="#0056FD"/>
<path d="M50 15.54V50.19L30 61.73L20 67.5V32.86L30 27.09L40 21.32L50 15.54Z" fill="#003ACF"/>
</svg>
