<svg width="100" height="100" viewBox="0 0 100 100" fill="none" xmlns="http://www.w3.org/2000/svg">
<path d="M90 61.7399L80 67.5099L70 73.2799L60 79.0599V55.9599L70 50.1899L80 55.9599L90 61.7399Z" fill="#0386FE"/>
<path d="M40 55.9599V67.5099L30 73.2799L20 79.0599V44.4199L40 55.9599Z" fill="#003ACF"/>
<path d="M70 27.0998L50 38.6398L40 32.8698V9.77979L60 21.3198L70 27.0998Z" fill="#0056FD"/>
<path d="M90 27.1L70 38.64L60 44.42L50 50.19L40 44.42L30 38.64L10 27.1V27.09L20 21.32L30 27.1L50 38.64L70 27.1L60 21.32L40 9.78L50 4L60 9.78L80 21.32L90 27.1Z" fill="#828695"/>
<path d="M60 79.0598L70 73.2798L80 67.5099L90 61.7398V73.2798L80 79.0598L70 84.8299L60 90.5999L50 96.3799V50.1898L60 44.4199L70 38.6399L90 27.0999V38.6399L80 44.4199L60 55.9598V79.0598Z" fill="#19253E"/>
<path d="M50 50.1898V96.3799L40 90.5999V55.9598L20 44.4199V79.0598L10 73.2798V27.0999L30 38.6399L40 44.4199L50 50.1898Z" fill="#565864"/>
</svg>
