<svg width="100" height="100" viewBox="0 0 100 100" fill="none" xmlns="http://www.w3.org/2000/svg">
<path d="M65.7506 13.2L49.8206 22.39L33.8906 13.2L41.8506 8.60001L49.8206 4L57.7806 8.60001L65.7506 13.2Z" fill="#828695"/>
<path d="M49.8206 22.3902V59.1802L41.8506 63.7702V45.3802L33.8906 40.7902V13.2002L49.8206 22.3902Z" fill="#0056FD"/>
<path d="M65.7503 13.2002V31.5902L57.7803 36.1902V63.7702L49.8203 59.1802V22.3902L65.7503 13.2002Z" fill="#003ACF"/>
<path d="M73.7112 45.3799V82.17L65.7512 77.5699V68.3799L57.7812 63.77V36.1899L65.7512 40.79L73.7112 45.3799Z" fill="#0056FD"/>
<path d="M41.8499 45.3799V63.7699L33.89 68.3799V77.5699L25.9199 82.1699V54.5799L33.89 49.9799L41.8499 45.3799Z" fill="#003ACF"/>
<path d="M25.92 54.5799V82.1699L17.96 77.5699L10 72.9699V45.3799L17.96 49.9799L25.92 54.5799Z" fill="#565864"/>
<path d="M49.8206 77.5699V95.9599L41.8506 91.3599L33.8906 86.7699V68.3799L41.8506 72.9699L49.8206 77.5699Z" fill="#565864"/>
<path d="M89.6409 36.1899V72.97L81.6709 77.5699V77.58L73.7109 82.17V45.3799L81.6709 40.79L89.6409 36.1899Z" fill="#19253E"/>
<path d="M65.7503 68.3799V86.7699L57.7803 91.3599L49.8203 95.9599V77.5699L57.7803 72.9699L65.7503 68.3799Z" fill="#19253E"/>
<path d="M65.7506 68.3802L57.7806 72.9702L49.8206 77.5702L41.8506 72.9702L33.8906 68.3802L41.8506 63.7702L49.8206 59.1802L57.7806 63.7702L65.7506 68.3802Z" fill="#828695"/>
<path d="M41.85 45.3799L33.89 49.98L25.92 54.58L17.96 49.98L10 45.3799L17.96 40.79L25.92 36.1899L33.89 40.79L41.85 45.3799Z" fill="#828695"/>
<path d="M89.6412 36.19L81.6712 40.79L73.7112 45.38L65.7512 40.79L57.7812 36.19L73.7112 27L89.6412 36.19Z" fill="#828695"/>
</svg>
