<svg width="40" height="41" viewBox="0 0 40 41" fill="none" xmlns="http://www.w3.org/2000/svg">
<rect y="0.120117" width="40" height="40" rx="10" fill="#3DB792" fill-opacity="0.2"/>
<path d="M24.19 10.1201H15.81C12.17 10.1201 10 12.2901 10 15.9301V24.3001C10 27.9501 12.17 30.1201 15.81 30.1201H24.18C27.82 30.1201 29.99 27.9501 29.99 24.3101V15.9301C30 12.2901 27.83 10.1201 24.19 10.1201ZM15.63 26.2701C15.63 26.6801 15.29 27.0201 14.88 27.0201C14.47 27.0201 14.13 26.6801 14.13 26.2701V24.2001C14.13 23.7901 14.47 23.4501 14.88 23.4501C15.29 23.4501 15.63 23.7901 15.63 24.2001V26.2701ZM20.75 26.2701C20.75 26.6801 20.41 27.0201 20 27.0201C19.59 27.0201 19.25 26.6801 19.25 26.2701V22.1201C19.25 21.7101 19.59 21.3701 20 21.3701C20.41 21.3701 20.75 21.7101 20.75 22.1201V26.2701ZM25.87 26.2701C25.87 26.6801 25.53 27.0201 25.12 27.0201C24.71 27.0201 24.37 26.6801 24.37 26.2701V20.0501C24.37 19.6401 24.71 19.3001 25.12 19.3001C25.53 19.3001 25.87 19.6401 25.87 20.0501V26.2701ZM25.87 16.8901C25.87 17.3001 25.53 17.6401 25.12 17.6401C24.71 17.6401 24.37 17.3001 24.37 16.8901V15.9201C21.82 18.5401 18.63 20.3901 15.06 21.2801C15 21.3001 14.94 21.3001 14.88 21.3001C14.54 21.3001 14.24 21.0701 14.15 20.7301C14.05 20.3301 14.29 19.9201 14.7 19.8201C18.07 18.9801 21.07 17.2101 23.45 14.7101H22.2C21.79 14.7101 21.45 14.3701 21.45 13.9601C21.45 13.5501 21.79 13.2101 22.2 13.2101H25.13C25.17 13.2101 25.2 13.2301 25.24 13.2301C25.29 13.2401 25.34 13.2401 25.39 13.2601C25.44 13.2801 25.48 13.3101 25.53 13.3401C25.56 13.3601 25.59 13.3701 25.62 13.3901C25.63 13.4001 25.63 13.4101 25.64 13.4101C25.68 13.4501 25.71 13.4901 25.74 13.5301C25.77 13.5701 25.8 13.6001 25.81 13.6401C25.83 13.6801 25.83 13.7201 25.84 13.7701C25.85 13.8201 25.87 13.8701 25.87 13.9301C25.87 13.9401 25.88 13.9501 25.88 13.9601V16.8901H25.87Z" fill="#3DB792"/>
</svg>
