<svg width="40" height="41" viewBox="0 0 40 41" fill="none" xmlns="http://www.w3.org/2000/svg">
<rect y="0.120117" width="40" height="40" rx="10" fill="#3DB792" fill-opacity="0.2"/>
<path d="M26 11.1201H14C11.79 11.1201 10 12.9001 10 15.0901V25.1501C10 27.3401 11.79 29.1201 14 29.1201H26C28.21 29.1201 30 27.3401 30 25.1501V15.0901C30 12.9001 28.21 11.1201 26 11.1201ZM16.5 15.2901C17.77 15.2901 18.81 16.3301 18.81 17.6001C18.81 18.8701 17.77 19.9101 16.5 19.9101C15.23 19.9101 14.19 18.8701 14.19 17.6001C14.19 16.3301 15.23 15.2901 16.5 15.2901ZM20.37 24.7801C20.28 24.8801 20.14 24.9401 20 24.9401H13C12.86 24.9401 12.72 24.8801 12.63 24.7801C12.54 24.6801 12.49 24.5401 12.5 24.4001C12.67 22.7201 14.01 21.3901 15.69 21.2301C16.22 21.1801 16.77 21.1801 17.3 21.2301C18.98 21.3901 20.33 22.7201 20.49 24.4001C20.51 24.5401 20.46 24.6801 20.37 24.7801ZM27 24.8701H25C24.59 24.8701 24.25 24.5301 24.25 24.1201C24.25 23.7101 24.59 23.3701 25 23.3701H27C27.41 23.3701 27.75 23.7101 27.75 24.1201C27.75 24.5301 27.41 24.8701 27 24.8701ZM27 20.8701H23C22.59 20.8701 22.25 20.5301 22.25 20.1201C22.25 19.7101 22.59 19.3701 23 19.3701H27C27.41 19.3701 27.75 19.7101 27.75 20.1201C27.75 20.5301 27.41 20.8701 27 20.8701ZM27 16.8701H22C21.59 16.8701 21.25 16.5301 21.25 16.1201C21.25 15.7101 21.59 15.3701 22 15.3701H27C27.41 15.3701 27.75 15.7101 27.75 16.1201C27.75 16.5301 27.41 16.8701 27 16.8701Z" fill="#3DB792"/>
</svg>
