<svg width="40" height="41" viewBox="0 0 40 41" fill="none" xmlns="http://www.w3.org/2000/svg">
<rect y="0.120117" width="40" height="40" rx="10" fill="#3DB792" fill-opacity="0.2"/>
<path fill-rule="evenodd" clip-rule="evenodd" d="M13.97 9.12012H11.03C9.76 9.12012 9 9.88012 9 11.1501V14.0901C9 15.3601 9.76 16.1201 11.03 16.1201H13.97C15.24 16.1201 16 15.3601 16 14.0901V11.1501C16 9.88012 15.24 9.12012 13.97 9.12012ZM13.25 10.8701V11.8701H14.25C14.6642 11.8701 15 12.2059 15 12.6201C15 13.0343 14.6642 13.3701 14.25 13.3701H13.25V14.3701C13.25 14.7843 12.9142 15.1201 12.5 15.1201C12.0858 15.1201 11.75 14.7843 11.75 14.3701V13.3701H10.75C10.3358 13.3701 10 13.0343 10 12.6201C10 12.2059 10.3358 11.8701 10.75 11.8701H11.75V10.8701C11.75 10.4559 12.0858 10.1201 12.5 10.1201C12.9142 10.1201 13.25 10.4559 13.25 10.8701Z" fill="#3DB792"/>
<path d="M29.4995 23.9403C29.4995 24.0903 29.4495 24.2403 29.3195 24.3703C27.8695 25.8303 25.2895 28.4303 23.8095 29.9203C23.6795 30.0603 23.5095 30.1203 23.3395 30.1203C23.0095 30.1203 22.6895 29.8603 22.6895 29.4803V25.9803C22.6895 24.5203 23.9295 23.3103 25.4495 23.3103C26.3995 23.3003 27.7195 23.3003 28.8495 23.3003C29.2395 23.3003 29.4995 23.6103 29.4995 23.9403Z" fill="#3DB792"/>
<path d="M29.4995 23.9403C29.4995 24.0903 29.4495 24.2403 29.3195 24.3703C27.8695 25.8303 25.2895 28.4303 23.8095 29.9203C23.6795 30.0603 23.5095 30.1203 23.3395 30.1203C23.0095 30.1203 22.6895 29.8603 22.6895 29.4803V25.9803C22.6895 24.5203 23.9295 23.3103 25.4495 23.3103C26.3995 23.3003 27.7195 23.3003 28.8495 23.3003C29.2395 23.3003 29.4995 23.6103 29.4995 23.9403Z" fill="#3DB792"/>
<path d="M24.63 10.1201H18.5C17.95 10.1201 17.5 10.5701 17.5 11.1201V14.6201C17.5 16.2801 16.16 17.6201 14.5 17.6201H11.5C10.95 17.6201 10.5 18.0701 10.5 18.6201V25.2501C10.5 27.9401 12.68 30.1201 15.37 30.1201H20.19C20.74 30.1201 21.19 29.6701 21.19 29.1201V25.9801C21.19 23.6801 23.1 21.8101 25.45 21.8101C25.98 21.8001 27.27 21.8001 28.5 21.8001C29.05 21.8001 29.5 21.3601 29.5 20.8001V14.9901C29.5 12.3001 27.32 10.1201 24.63 10.1201ZM16.72 25.1301H14.08C13.67 25.1301 13.33 24.7901 13.33 24.3801C13.33 23.9601 13.67 23.6201 14.08 23.6201H16.72C17.15 23.6201 17.47 23.9601 17.47 24.3801C17.47 24.7901 17.15 25.1301 16.72 25.1301ZM19.51 21.4201H14.08C13.67 21.4201 13.33 21.0801 13.33 20.6701C13.33 20.2501 13.67 19.9101 14.08 19.9101H19.51C19.92 19.9101 20.27 20.2501 20.27 20.6701C20.27 21.0801 19.92 21.4201 19.51 21.4201Z" fill="#3DB792"/>
</svg>
