<svg width="40" height="41" viewBox="0 0 40 41" fill="none" xmlns="http://www.w3.org/2000/svg">
<rect y="0.120117" width="40" height="40" rx="10" fill="#3DB792" fill-opacity="0.2"/>
<path d="M29.0891 15.1001C28.2391 14.1601 26.8191 13.6901 24.7591 13.6901H24.5191V13.6501C24.5191 11.9701 24.5191 9.89014 20.7591 9.89014H19.2391C15.4791 9.89014 15.4791 11.9801 15.4791 13.6501V13.7001H15.2391C13.1691 13.7001 11.7591 14.1701 10.9091 15.1101C9.91906 16.2101 9.94906 17.6901 10.0491 18.7001L10.0591 18.7701L10.1365 19.5834C10.1508 19.7332 10.2314 19.8685 10.3573 19.9509C10.5971 20.1078 10.9985 20.3665 11.2391 20.5001C11.3791 20.5901 11.5291 20.6701 11.6791 20.7501C13.3891 21.6901 15.2691 22.3201 17.1791 22.6301C17.2691 23.5701 17.6791 24.6701 19.8691 24.6701C22.0591 24.6701 22.4891 23.5801 22.5591 22.6101C24.5991 22.2801 26.5691 21.5701 28.3491 20.5301C28.4091 20.5001 28.4491 20.4701 28.4991 20.4401C28.8958 20.2159 29.3074 19.9396 29.6825 19.669C29.7955 19.5875 29.8678 19.4614 29.8832 19.3229L29.8991 19.1801L29.9491 18.7101C29.9591 18.6501 29.9591 18.6001 29.9691 18.5301C30.0491 17.5201 30.0291 16.1401 29.0891 15.1001ZM21.0891 21.9501C21.0891 23.0101 21.0891 23.1701 19.8591 23.1701C18.6291 23.1701 18.6291 22.9801 18.6291 21.9601V20.7001H21.0891V21.9501ZM16.9091 13.6901V13.6501C16.9091 11.9501 16.9091 11.3201 19.2391 11.3201H20.7591C23.0891 11.3201 23.0891 11.9601 23.0891 13.6501V13.7001H16.9091V13.6901Z" fill="#3DB792"/>
<path d="M28.8733 21.8545C29.2269 21.6862 29.6342 21.9665 29.5988 22.3565L29.2398 26.3103C29.0298 28.3103 28.2098 30.3503 23.8098 30.3503H16.1898C11.7898 30.3503 10.9698 28.3103 10.7598 26.3203L10.4191 22.5725C10.3841 22.187 10.782 21.9071 11.1347 22.0666C12.2741 22.5821 14.3772 23.4967 15.6764 23.837C15.8407 23.88 15.9736 23.9976 16.0456 24.1515C16.6525 25.4496 17.969 26.1403 19.8698 26.1403C21.752 26.1403 23.085 25.423 23.694 24.1217C23.766 23.9677 23.8991 23.8502 24.0635 23.8069C25.443 23.4439 27.6816 22.4216 28.8733 21.8545Z" fill="#3DB792"/>
</svg>
