<svg width="40" height="41" viewBox="0 0 40 41" fill="none" xmlns="http://www.w3.org/2000/svg">
<rect y="0.120117" width="40" height="40" rx="10" fill="#3DB792" fill-opacity="0.2"/>
<path d="M13 23.1201C10.79 23.1201 9 24.9101 9 27.1201C9 27.8701 9.21 28.5801 9.58 29.1801C10.27 30.3401 11.54 31.1201 13 31.1201C14.46 31.1201 15.73 30.3401 16.42 29.1801C16.79 28.5801 17 27.8701 17 27.1201C17 24.9101 15.21 23.1201 13 23.1201ZM14.97 26.7901L12.84 28.7601C12.7 28.8901 12.51 28.9601 12.33 28.9601C12.14 28.9601 11.95 28.8901 11.8 28.7401L10.81 27.7501C10.52 27.4601 10.52 26.9801 10.81 26.6901C11.1 26.4001 11.58 26.4001 11.87 26.6901L12.35 27.1701L13.95 25.6901C14.25 25.4101 14.73 25.4301 15.01 25.7301C15.29 26.0301 15.27 26.5101 14.97 26.7901Z" fill="#3DB792"/>
<path d="M29.5 20.6201H27C25.9 20.6201 25 21.5201 25 22.6201C25 23.7201 25.9 24.6201 27 24.6201H29.5C29.78 24.6201 30 24.4001 30 24.1201V21.1201C30 20.8401 29.78 20.6201 29.5 20.6201Z" fill="#3DB792"/>
<path d="M24.5292 13.5203C24.8292 13.8103 24.5792 14.2603 24.1592 14.2603L15.8792 14.2503C15.3992 14.2503 15.1592 13.6703 15.4992 13.3303L17.2492 11.5703C18.7292 10.1003 21.1192 10.1003 22.5992 11.5703L24.4892 13.4803C24.4992 13.4903 24.5192 13.5103 24.5292 13.5203Z" fill="#3DB792"/>
<path d="M29.8694 26.7801C29.2594 28.8401 27.4994 30.1201 25.0994 30.1201H18.5994C18.2094 30.1201 17.9594 29.6901 18.1194 29.3301C18.4194 28.6301 18.6094 27.8401 18.6094 27.1201C18.6094 24.0901 16.1394 21.6201 13.1094 21.6201C12.3494 21.6201 11.6094 21.7801 10.9294 22.0801C10.5594 22.2401 10.1094 21.9901 10.1094 21.5901V20.1201C10.1094 17.4001 11.7494 15.5001 14.2994 15.1801C14.5494 15.1401 14.8194 15.1201 15.0994 15.1201H25.0994C25.3594 15.1201 25.6094 15.1301 25.8494 15.1701C27.8694 15.4001 29.3294 16.6301 29.8694 18.4601C29.9694 18.7901 29.7294 19.1201 29.3894 19.1201H27.0994C24.9294 19.1201 23.2094 21.1001 23.6794 23.3501C24.0094 24.9901 25.5294 26.1201 27.1994 26.1201H29.3894C29.7394 26.1201 29.9694 26.4601 29.8694 26.7801Z" fill="#3DB792"/>
</svg>
