<svg width="40" height="41" viewBox="0 0 40 41" fill="none" xmlns="http://www.w3.org/2000/svg">
<rect y="0.120117" width="40" height="40" rx="10" fill="#3DB792" fill-opacity="0.2"/>
<path d="M20 23.1201C23.7279 23.1201 26.75 20.21 26.75 16.6201C26.75 13.0303 23.7279 10.1201 20 10.1201C16.2721 10.1201 13.25 13.0303 13.25 16.6201C13.25 20.21 16.2721 23.1201 20 23.1201Z" fill="#3DB792"/>
<path d="M23.79 23.7302C24.12 23.5602 24.5 23.8102 24.5 24.1802L25.5 29.0302C25.5 29.9302 24.87 30.3702 24.09 30.0002L20.41 28.7302C20.18 28.6302 19.82 28.6302 19.59 28.7302L15.91 30.0002C15.13 30.3602 14.5 29.9202 14.5 29.0202L15.52 24.1802C15.52 23.8102 15.91 23.5702 16.23 23.7302C17.36 24.3002 18.64 24.6202 20 24.6202C21.36 24.6202 22.65 24.3002 23.79 23.7302Z" fill="#3DB792"/>
</svg>
