<svg width="40" height="41" viewBox="0 0 40 41" fill="none" xmlns="http://www.w3.org/2000/svg">
<rect y="0.120117" width="40" height="40" rx="10" fill="#3DB792" fill-opacity="0.2"/>
<path d="M29 18.1201H11C10.45 18.1201 10 18.5701 10 19.1201V24.3101C10 24.5101 10.01 24.7101 10.03 24.9101C10.23 27.9901 12.13 29.8901 15.21 30.0901C15.41 30.1101 15.61 30.1201 15.81 30.1201H24.19C24.39 30.1201 24.59 30.1101 24.79 30.0901C27.87 29.8901 29.77 27.9901 29.97 24.9101C29.99 24.7101 30 24.5101 30 24.3101V19.1201C30 18.5701 29.55 18.1201 29 18.1201ZM16 24.2701C16.34 24.7701 16.8 25.1801 17.33 25.4501C17.71 25.6301 17.86 26.0801 17.67 26.4601C17.54 26.7201 17.27 26.8701 17 26.8701C16.89 26.8701 16.77 26.8401 16.67 26.7901C15.89 26.4101 15.23 25.8201 14.76 25.1101C14.36 24.5101 14.36 23.7301 14.76 23.1301C15.23 22.4201 15.89 21.8301 16.67 21.4501C17.04 21.2601 17.49 21.4101 17.67 21.7801C17.86 22.1601 17.71 22.6101 17.33 22.7901C16.8 23.0601 16.34 23.4701 16 23.9701C15.94 24.0601 15.94 24.1801 16 24.2701ZM25.45 25.1101C24.97 25.8201 24.31 26.4101 23.54 26.7901C23.43 26.8401 23.32 26.8701 23.21 26.8701C22.93 26.8701 22.67 26.7201 22.54 26.4601C22.35 26.0801 22.5 25.6301 22.87 25.4501C23.41 25.1801 23.87 24.7701 24.2 24.2701C24.27 24.1801 24.27 24.0601 24.2 23.9701C23.87 23.4701 23.41 23.0601 22.87 22.7901C22.5 22.6101 22.35 22.1601 22.54 21.7801C22.72 21.4101 23.17 21.2601 23.54 21.4501C24.31 21.8301 24.97 22.4201 25.45 23.1301C25.85 23.7301 25.85 24.5101 25.45 25.1101Z" fill="#3DB792"/>
<path d="M30 15.9301V16.1201C30 16.6701 29.55 17.1201 29 17.1201L11 17.1301C10.45 17.1301 10 16.6801 10 16.1301V15.9301C10 15.7301 10.01 15.5301 10.03 15.3301C10.23 12.2501 12.13 10.3501 15.21 10.1501C15.41 10.1301 15.61 10.1201 15.81 10.1201H24.19C24.39 10.1201 24.59 10.1301 24.79 10.1501C27.87 10.3501 29.77 12.2501 29.97 15.3301C29.99 15.5301 30 15.7301 30 15.9301Z" fill="#3DB792"/>
</svg>
