<svg width="40" height="41" viewBox="0 0 40 41" fill="none" xmlns="http://www.w3.org/2000/svg">
<rect y="0.120117" width="40" height="40" rx="10" fill="#3DB792" fill-opacity="0.2"/>
<path d="M24 10.1201H16C12.5 10.1201 11 12.1201 11 15.1201V19.5901C11 19.9401 11.34 20.1801 11.66 20.0601C12.76 19.6301 14.01 19.4901 15.3 19.7501C17.9 20.2701 19.97 22.4101 20.4 25.0201C20.66 26.6101 20.34 28.1201 19.61 29.3701C19.41 29.7001 19.65 30.1201 20.04 30.1201H24C27.5 30.1201 29 28.1201 29 25.1201V15.1201C29 12.1201 27.5 10.1201 24 10.1201ZM26.5 17.3701H24.5C22.98 17.3701 21.75 16.1401 21.75 14.6201V12.6201C21.75 12.2101 22.09 11.8701 22.5 11.8701C22.91 11.8701 23.25 12.2101 23.25 12.6201V14.6201C23.25 15.3101 23.81 15.8701 24.5 15.8701H26.5C26.91 15.8701 27.25 16.2101 27.25 16.6201C27.25 17.0301 26.91 17.3701 26.5 17.3701Z" fill="#3DB792"/>
<path d="M14 21.1201C11.24 21.1201 9 23.3601 9 26.1201C9 28.8801 11.24 31.1201 14 31.1201C16.76 31.1201 19 28.8801 19 26.1201C19 23.3601 16.76 21.1201 14 21.1201ZM13.16 27.3901C13.41 27.6401 13.41 28.0501 13.16 28.3101C13.03 28.4401 12.87 28.5001 12.7 28.5001C12.53 28.5001 12.37 28.4401 12.24 28.3101L10.51 26.5801C10.26 26.3301 10.26 25.9201 10.51 25.6601L12.24 23.9301C12.49 23.6801 12.9 23.6801 13.16 23.9301C13.41 24.1801 13.41 24.5901 13.16 24.8501L11.89 26.1201L13.16 27.3901ZM17.48 26.5801L15.75 28.3101C15.62 28.4401 15.46 28.5001 15.29 28.5001C15.12 28.5001 14.96 28.4401 14.83 28.3101C14.58 28.0601 14.58 27.6501 14.83 27.3901L16.11 26.1201L14.84 24.8501C14.59 24.6001 14.59 24.1901 14.84 23.9301C15.09 23.6801 15.5 23.6801 15.76 23.9301L17.49 25.6601C17.73 25.9201 17.73 26.3201 17.48 26.5801Z" fill="#3DB792"/>
</svg>
