<svg width="100" height="101" viewBox="0 0 100 101" fill="none" xmlns="http://www.w3.org/2000/svg">
<path d="M60 33.3403V44.8803L50 39.1103L60 33.3403Z" fill="#0056FD" stroke="#666666" stroke-width="0.25" stroke-miterlimit="10"/>
<path d="M70 62.2002L60 67.9802L50 73.7502V62.2002L60 56.4302L70 62.2002Z" fill="#0385FE" stroke="#666666" stroke-width="0.25" stroke-miterlimit="10"/>
<path d="M40 56.4302V91.0702L30 85.3002V50.6602L40 56.4302Z" fill="#565864" stroke="#666666" stroke-width="0.25" stroke-miterlimit="10"/>
<path d="M60 44.8803L50 50.6604L40 56.4303L30 50.6604L40 44.8803L50 39.1104L60 44.8803Z" fill="#0385FE" stroke="#666666" stroke-width="0.25" stroke-miterlimit="10"/>
<path d="M70 16.0102V16.0202L50 27.5602L40 33.3402L30 27.5602L50 16.0202V16.0102L60 10.2402L70 16.0102Z" fill="#828695" stroke="#666666" stroke-width="0.25" stroke-miterlimit="10"/>
<path d="M70 16.02V50.66L60 56.43L50 62.2V73.75L60 67.98L70 62.2V73.75L60 79.52V79.53L40 91.07V56.43L50 50.66L60 44.88V33.34L40 44.88V33.34L50 27.56L70 16.02Z" fill="#19253E" stroke="#666666" stroke-width="0.25" stroke-miterlimit="10"/>
<path d="M40 33.3401V44.8801L30 39.1101V27.5601L40 33.3401Z" fill="#565864" stroke="#666666" stroke-width="0.25" stroke-miterlimit="10"/>
</svg>
