<svg width="100" height="101" viewBox="0 0 100 101" fill="none" xmlns="http://www.w3.org/2000/svg">
<path d="M60 44.8801L50 50.6501V39.1001L60 44.8801Z" fill="#0385FE" stroke="#666666" stroke-width="0.25" stroke-miterlimit="10"/>
<path d="M70 16.0102L60 21.7802L50 16.0102L60 10.2402L70 16.0102Z" fill="#828695" stroke="#666666" stroke-width="0.25" stroke-miterlimit="10"/>
<path d="M50 27.5603L40 33.3303L30 27.5603L40 21.7803L50 27.5603Z" fill="#828695" stroke="#666666" stroke-width="0.25" stroke-miterlimit="10"/>
<path d="M60 21.7803V44.8803L50 39.1003V16.0103L60 21.7803Z" fill="#0056FD" stroke="#666666" stroke-width="0.25" stroke-miterlimit="10"/>
<path d="M40 33.3301V67.9701L30 62.2001V27.5601L40 33.3301Z" fill="#565864" stroke="#666666" stroke-width="0.25" stroke-miterlimit="10"/>
<path d="M60 56.4302V90.5202L50 84.7502V62.2002L60 56.4302Z" fill="#0056FD" stroke="#666666" stroke-width="0.25" stroke-miterlimit="10"/>
<path d="M70 16.0103V84.7503L60 90.5203V56.4303L50 62.2003L40 67.9703V33.3303L50 27.5603V50.6503L60 44.8803V21.7803L70 16.0103Z" fill="#19253E" stroke="#666666" stroke-width="0.25" stroke-miterlimit="10"/>
</svg>
