<svg width="40" height="40" viewBox="0 0 40 40" fill="none" xmlns="http://www.w3.org/2000/svg">
<rect width="40" height="40" rx="20" fill="white" fill-opacity="0.05"/>
<path d="M24.19 10H15.81C12.17 10 10 12.17 10 15.81V24.18C10 27.83 12.17 30 15.81 30H24.18C27.82 30 29.99 27.83 29.99 24.19V15.81C30 12.17 27.83 10 24.19 10ZM15.67 13.5C15.67 13.09 16.01 12.75 16.42 12.75C16.83 12.75 17.17 13.09 17.17 13.5V17.4C17.17 17.81 16.83 18.15 16.42 18.15C16.01 18.15 15.67 17.81 15.67 17.4V13.5ZM17.5228 24.4313C17.3194 24.5216 17.17 24.7132 17.17 24.9358V26.5C17.17 26.91 16.83 27.25 16.42 27.25C16.01 27.25 15.67 26.91 15.67 26.5V24.9358C15.67 24.7132 15.5206 24.5216 15.3172 24.4311C14.3628 24.0064 13.7 23.058 13.7 21.95C13.7 20.45 14.92 19.22 16.42 19.22C17.92 19.22 19.15 20.44 19.15 21.95C19.15 23.0582 18.4791 24.0066 17.5228 24.4313ZM24.33 26.5C24.33 26.91 23.99 27.25 23.58 27.25C23.17 27.25 22.83 26.91 22.83 26.5V22.6C22.83 22.19 23.17 21.85 23.58 21.85C23.99 21.85 24.33 22.19 24.33 22.6V26.5ZM23.58 20.77C22.08 20.77 20.85 19.55 20.85 18.04C20.85 16.9318 21.5209 15.9834 22.4772 15.5587C22.6806 15.4684 22.83 15.2768 22.83 15.0542V13.5C22.83 13.09 23.17 12.75 23.58 12.75C23.99 12.75 24.33 13.09 24.33 13.5V15.0642C24.33 15.2868 24.4794 15.4784 24.6828 15.5689C25.6372 15.9936 26.3 16.942 26.3 18.05C26.3 19.55 25.08 20.77 23.58 20.77Z" fill="white"/>
</svg>
