<svg width="40" height="40" viewBox="0 0 40 40" fill="none" xmlns="http://www.w3.org/2000/svg">
<rect width="40" height="40" rx="20" fill="white" fill-opacity="0.05"/>
<path d="M25.2554 11.5789C25.1846 11.5074 25.0965 11.4557 25.0014 11.4257L19.2725 9.62693C16.9816 8.90756 15.4912 10.1625 15.0897 10.5652C14.8554 10.7995 14.6761 11.0465 14.5842 11.2616L12.0322 17.2643C11.886 17.6077 11.9358 18.0654 12.165 18.5218C12.493 19.1735 13.0841 19.6433 13.7907 19.8124C14.5816 20.002 15.4018 19.7448 16.044 19.1033C16.2118 18.9354 16.3548 18.7503 16.4391 18.5933L17.297 17.002C17.438 16.7383 17.6429 16.4652 17.8587 16.2494C18.5947 15.5128 18.9444 15.8498 19.0932 15.9928C20.3768 17.2318 27.1065 23.9902 27.1065 23.9902C27.3459 24.2296 27.2961 24.6834 26.9967 24.9821C26.698 25.2802 26.2435 25.3313 26.0048 25.0932L24.1141 23.2032C23.8703 22.9587 23.4771 22.9587 23.2333 23.2032C22.9894 23.4451 22.9894 23.8402 23.2333 24.0834L25.1239 25.9747C25.3627 26.2128 25.3129 26.6666 25.0141 26.9647C24.7154 27.2641 24.2603 27.3139 24.0228 27.0758L22.1315 25.1857C21.8877 24.9419 21.4932 24.9419 21.2507 25.1857C21.0068 25.4277 21.0068 25.8228 21.2507 26.0666L23.1413 27.9573C23.3801 28.196 23.3284 28.6499 23.0303 28.9486C22.7322 29.2467 22.2783 29.2977 22.039 29.0584L20.1483 27.1683C19.9057 26.9251 19.5106 26.9251 19.2674 27.1683C19.0249 27.4115 19.0249 27.8066 19.2674 28.0486L21.1581 29.9399C21.3975 30.1792 21.3464 30.6331 21.0483 30.9318C20.7483 31.2305 20.2945 31.281 20.0564 31.0422L17.7546 28.7386C18.0834 28.2445 17.994 27.5277 17.5063 27.0381C16.9599 26.4924 16.1193 26.4419 15.6329 26.9296C16.1193 26.4426 16.0714 25.6032 15.5237 25.0562C14.9761 24.5098 14.1373 24.4593 13.6509 24.9457C14.1373 24.4593 14.0882 23.6206 13.5399 23.0742C12.9935 22.5265 12.1547 22.4768 11.6671 22.9631C12.1547 22.4768 12.1043 21.638 11.5573 21.0897C11.0454 20.5778 10.2826 20.5082 9.78661 20.8982L6.05952 17.1711C5.81632 16.9273 5.42121 16.9273 5.17801 17.1711C4.93545 17.4137 4.93545 17.8088 5.17801 18.0526L8.89553 21.7695L7.79317 22.8719C7.30678 23.3576 7.35593 24.1964 7.90423 24.7447C8.45063 25.2911 9.28937 25.3415 9.7764 24.8545C9.28937 25.3415 9.33916 26.1796 9.88683 26.7273C10.4332 27.273 11.2726 27.3247 11.7596 26.8377C11.2726 27.3247 11.3217 28.1628 11.8694 28.7099C12.4171 29.2575 13.2558 29.3073 13.7422 28.8209C13.2558 29.3067 13.305 30.1448 13.8526 30.6931C14.3997 31.2395 15.2378 31.2899 15.7254 30.8029L16.8897 29.6392L19.1755 31.9244C19.9051 32.654 21.139 32.6029 21.9292 31.814C22.3141 31.4291 22.5196 30.9376 22.5483 30.4512C23.0347 30.4224 23.5269 30.2163 23.9111 29.8307C24.2967 29.4458 24.5035 28.9543 24.5329 28.4679C25.0186 28.4392 25.5088 28.2337 25.8956 27.8481C26.2805 27.4626 26.4867 26.9717 26.5148 26.4847C27.0018 26.4566 27.4933 26.2511 27.8789 25.8643C28.6678 25.0753 28.7163 23.8395 27.9887 23.1112L27.0248 22.1467L30.9823 18.1899C31.2255 17.9473 31.2255 17.5522 30.9823 17.309L25.2554 11.5789Z" fill="white"/>
<path d="M34.6353 12.9717L29.592 7.92838C29.1056 7.44135 28.316 7.44135 27.829 7.92838L26.066 9.69012C25.5796 10.1765 25.5796 10.9661 26.066 11.4525L31.1099 16.4971C31.5969 16.9835 32.3865 16.9835 32.8729 16.4971L34.6353 14.7347C35.121 14.2477 35.121 13.4581 34.6353 12.9717ZM31.9882 15.5402C31.4239 15.5402 30.9656 15.0826 30.9656 14.5177C30.9656 13.9528 31.4239 13.4944 31.9882 13.4944C32.5531 13.4944 33.0114 13.9521 33.0114 14.5177C33.0108 15.0819 32.5531 15.5402 31.9882 15.5402Z" fill="white"/>
</svg>
