<svg width="68" height="68" viewBox="0 0 68 68" fill="none" xmlns="http://www.w3.org/2000/svg">
<g filter="url(#filter0_dd_987_3477)">
<rect x="14" width="40" height="40" rx="10" fill="#3DB792" fill-opacity="0.2"/>
<path d="M38.19 10H29.81C26.17 10 24 12.17 24 15.81V24.18C24 27.83 26.17 30 29.81 30H38.18C41.82 30 43.99 27.83 43.99 24.19V15.81C44 12.17 41.83 10 38.19 10ZM29.63 26.15C29.63 26.56 29.29 26.9 28.88 26.9C28.47 26.9 28.13 26.56 28.13 26.15V24.08C28.13 23.67 28.47 23.33 28.88 23.33C29.29 23.33 29.63 23.67 29.63 24.08V26.15ZM34.75 26.15C34.75 26.56 34.41 26.9 34 26.9C33.59 26.9 33.25 26.56 33.25 26.15V22C33.25 21.59 33.59 21.25 34 21.25C34.41 21.25 34.75 21.59 34.75 22V26.15ZM39.87 26.15C39.87 26.56 39.53 26.9 39.12 26.9C38.71 26.9 38.37 26.56 38.37 26.15V19.93C38.37 19.52 38.71 19.18 39.12 19.18C39.53 19.18 39.87 19.52 39.87 19.93V26.15ZM39.87 16.77C39.87 17.18 39.53 17.52 39.12 17.52C38.71 17.52 38.37 17.18 38.37 16.77V15.8C35.82 18.42 32.63 20.27 29.06 21.16C29 21.18 28.94 21.18 28.88 21.18C28.54 21.18 28.24 20.95 28.15 20.61C28.05 20.21 28.29 19.8 28.7 19.7C32.07 18.86 35.07 17.09 37.45 14.59H36.2C35.79 14.59 35.45 14.25 35.45 13.84C35.45 13.43 35.79 13.09 36.2 13.09H39.13C39.17 13.09 39.2 13.11 39.24 13.11C39.29 13.12 39.34 13.12 39.39 13.14C39.44 13.16 39.48 13.19 39.53 13.22C39.56 13.24 39.59 13.25 39.62 13.27C39.63 13.28 39.63 13.29 39.64 13.29C39.68 13.33 39.71 13.37 39.74 13.41C39.77 13.45 39.8 13.48 39.81 13.52C39.83 13.56 39.83 13.6 39.84 13.65C39.85 13.7 39.87 13.75 39.87 13.81C39.87 13.82 39.88 13.83 39.88 13.84V16.77H39.87Z" fill="#3DB792"/>
</g>
<defs>
<filter id="filter0_dd_987_3477" x="0" y="0" width="68" height="68" filterUnits="userSpaceOnUse" color-interpolation-filters="sRGB">
<feFlood flood-opacity="0" result="BackgroundImageFix"/>
<feColorMatrix in="SourceAlpha" type="matrix" values="0 0 0 0 0 0 0 0 0 0 0 0 0 0 0 0 0 0 127 0" result="hardAlpha"/>
<feMorphology radius="10" operator="erode" in="SourceAlpha" result="effect1_dropShadow_987_3477"/>
<feOffset dy="14"/>
<feGaussianBlur stdDeviation="12"/>
<feComposite in2="hardAlpha" operator="out"/>
<feColorMatrix type="matrix" values="0 0 0 0 0.239216 0 0 0 0 0.717647 0 0 0 0 0.572549 0 0 0 0.2 0"/>
<feBlend mode="normal" in2="BackgroundImageFix" result="effect1_dropShadow_987_3477"/>
<feColorMatrix in="SourceAlpha" type="matrix" values="0 0 0 0 0 0 0 0 0 0 0 0 0 0 0 0 0 0 127 0" result="hardAlpha"/>
<feOffset dy="7"/>
<feGaussianBlur stdDeviation="3.5"/>
<feComposite in2="hardAlpha" operator="out"/>
<feColorMatrix type="matrix" values="0 0 0 0 0 0 0 0 0 0 0 0 0 0 0 0 0 0 0.15 0"/>
<feBlend mode="normal" in2="effect1_dropShadow_987_3477" result="effect2_dropShadow_987_3477"/>
<feBlend mode="normal" in="SourceGraphic" in2="effect2_dropShadow_987_3477" result="shape"/>
</filter>
</defs>
</svg>
