<svg width="68" height="68" viewBox="0 0 68 68" fill="none" xmlns="http://www.w3.org/2000/svg">
<g filter="url(#filter0_dd_841_57963)">
<rect x="14" width="40" height="40" rx="10" fill="#3DB792" fill-opacity="0.2"/>
<path d="M38.19 10H29.81C26.17 10 24 12.17 24 15.81V24.18C24 27.83 26.17 30 29.81 30H38.18C41.82 30 43.99 27.83 43.99 24.19V15.81C44 12.17 41.83 10 38.19 10ZM29.67 13.5C29.67 13.09 30.01 12.75 30.42 12.75C30.83 12.75 31.17 13.09 31.17 13.5V17.4C31.17 17.81 30.83 18.15 30.42 18.15C30.01 18.15 29.67 17.81 29.67 17.4V13.5ZM31.5228 24.4313C31.3194 24.5216 31.17 24.7132 31.17 24.9358V26.5C31.17 26.91 30.83 27.25 30.42 27.25C30.01 27.25 29.67 26.91 29.67 26.5V24.9358C29.67 24.7132 29.5206 24.5216 29.3172 24.4311C28.3628 24.0064 27.7 23.058 27.7 21.95C27.7 20.45 28.92 19.22 30.42 19.22C31.92 19.22 33.15 20.44 33.15 21.95C33.15 23.0582 32.4791 24.0066 31.5228 24.4313ZM38.33 26.5C38.33 26.91 37.99 27.25 37.58 27.25C37.17 27.25 36.83 26.91 36.83 26.5V22.6C36.83 22.19 37.17 21.85 37.58 21.85C37.99 21.85 38.33 22.19 38.33 22.6V26.5ZM37.58 20.77C36.08 20.77 34.85 19.55 34.85 18.04C34.85 16.9318 35.5209 15.9834 36.4772 15.5587C36.6806 15.4684 36.83 15.2768 36.83 15.0542V13.5C36.83 13.09 37.17 12.75 37.58 12.75C37.99 12.75 38.33 13.09 38.33 13.5V15.0642C38.33 15.2868 38.4794 15.4784 38.6828 15.5689C39.6372 15.9936 40.3 16.942 40.3 18.05C40.3 19.55 39.08 20.77 37.58 20.77Z" fill="#3DB792"/>
</g>
<defs>
<filter id="filter0_dd_841_57963" x="0" y="0" width="68" height="68" filterUnits="userSpaceOnUse" color-interpolation-filters="sRGB">
<feFlood flood-opacity="0" result="BackgroundImageFix"/>
<feColorMatrix in="SourceAlpha" type="matrix" values="0 0 0 0 0 0 0 0 0 0 0 0 0 0 0 0 0 0 127 0" result="hardAlpha"/>
<feMorphology radius="10" operator="erode" in="SourceAlpha" result="effect1_dropShadow_841_57963"/>
<feOffset dy="14"/>
<feGaussianBlur stdDeviation="12"/>
<feComposite in2="hardAlpha" operator="out"/>
<feColorMatrix type="matrix" values="0 0 0 0 0.239216 0 0 0 0 0.717647 0 0 0 0 0.572549 0 0 0 0.2 0"/>
<feBlend mode="normal" in2="BackgroundImageFix" result="effect1_dropShadow_841_57963"/>
<feColorMatrix in="SourceAlpha" type="matrix" values="0 0 0 0 0 0 0 0 0 0 0 0 0 0 0 0 0 0 127 0" result="hardAlpha"/>
<feOffset dy="7"/>
<feGaussianBlur stdDeviation="3.5"/>
<feComposite in2="hardAlpha" operator="out"/>
<feColorMatrix type="matrix" values="0 0 0 0 0 0 0 0 0 0 0 0 0 0 0 0 0 0 0.15 0"/>
<feBlend mode="normal" in2="effect1_dropShadow_841_57963" result="effect2_dropShadow_841_57963"/>
<feBlend mode="normal" in="SourceGraphic" in2="effect2_dropShadow_841_57963" result="shape"/>
</filter>
</defs>
</svg>
