<svg width="24" height="24" viewBox="0 0 24 24" fill="none" xmlns="http://www.w3.org/2000/svg">
<path d="M15.1042 21.5236C15.047 21.5236 14.9803 21.5141 14.9232 21.4951C13.0089 20.9522 10.9994 20.9522 9.0851 21.4951C8.73272 21.5903 8.3613 21.3903 8.26606 21.0379C8.1613 20.6855 8.37082 20.3141 8.7232 20.2189C10.8756 19.6093 13.1422 19.6093 15.2946 20.2189C15.647 20.3236 15.8565 20.6855 15.7518 21.0379C15.6565 21.3331 15.3899 21.5236 15.1042 21.5236Z" fill="white"/>
<path d="M18.8676 6.62858C17.8771 4.62858 15.9628 3.15239 13.7437 2.66668C11.4199 2.15239 9.03899 2.70477 7.21994 4.17144C5.39137 5.62858 4.35327 7.80953 4.35327 10.1429C4.35327 12.6095 5.82946 15.1905 8.05803 16.6857V17.4762C8.04851 17.7429 8.03899 18.1524 8.3628 18.4857C8.69613 18.8286 9.19137 18.8667 9.58184 18.8667H14.4676C14.9818 18.8667 15.3723 18.7238 15.639 18.4572C16.0009 18.0857 15.9914 17.6095 15.9818 17.3524V16.6857C18.9342 14.6952 20.7914 10.4952 18.8676 6.62858ZM13.639 11.6381L12.6199 13.4095C12.4866 13.6381 12.2485 13.7714 12.0009 13.7714C11.8771 13.7714 11.7533 13.7429 11.6485 13.6762C11.3057 13.4762 11.1914 13.0381 11.3818 12.7048L12.1914 11.2952H11.3914C10.9152 11.2952 10.5247 11.0857 10.3152 10.7333C10.1057 10.3714 10.1247 9.93334 10.3628 9.5143L11.3818 7.74287C11.5818 7.40001 12.0199 7.28572 12.3533 7.4762C12.6961 7.6762 12.8104 8.1143 12.6199 8.44763L11.8104 9.85715H12.6104C13.0866 9.85715 13.4771 10.0667 13.6866 10.4191C13.8961 10.781 13.8771 11.2286 13.639 11.6381Z" fill="white"/>
</svg>
