<svg width="40" height="40" viewBox="0 0 40 40" fill="none" xmlns="http://www.w3.org/2000/svg">
<rect width="40" height="40" rx="20" fill="white" fill-opacity="0.05"/>
<path d="M17.3199 21.28H20.4099V28.48C20.4099 29.54 21.7299 30.04 22.4299 29.24L29.9999 20.64C30.6599 19.89 30.1299 18.72 29.1299 18.72H26.0399V11.52C26.0399 10.46 24.7199 9.96 24.0199 10.76L16.4499 19.36C15.7999 20.11 16.3299 21.28 17.3199 21.28Z" fill="white"/>
<path d="M16.5 12.75H9.5C9.09 12.75 8.75 12.41 8.75 12C8.75 11.59 9.09 11.25 9.5 11.25H16.5C16.91 11.25 17.25 11.59 17.25 12C17.25 12.41 16.91 12.75 16.5 12.75Z" fill="white"/>
<path d="M15.5 28.75H9.5C9.09 28.75 8.75 28.41 8.75 28C8.75 27.59 9.09 27.25 9.5 27.25H15.5C15.91 27.25 16.25 27.59 16.25 28C16.25 28.41 15.91 28.75 15.5 28.75Z" fill="white"/>
<path d="M12.5 20.75H9.5C9.09 20.75 8.75 20.41 8.75 20C8.75 19.59 9.09 19.25 9.5 19.25H12.5C12.91 19.25 13.25 19.59 13.25 20C13.25 20.41 12.91 20.75 12.5 20.75Z" fill="white"/>
</svg>
