<svg width="40" height="40" viewBox="0 0 40 40" fill="none" xmlns="http://www.w3.org/2000/svg">
<rect width="40" height="40" rx="20" fill="white" fill-opacity="0.05"/>
<path d="M26.4704 24.83L26.8604 27.99C26.9604 28.82 26.0704 29.4 25.3604 28.97L21.9004 26.91C21.6604 26.77 21.6004 26.47 21.7304 26.23C22.2304 25.31 22.5004 24.27 22.5004 23.23C22.5004 19.57 19.3604 16.59 15.5004 16.59C14.7104 16.59 13.9404 16.71 13.2204 16.95C12.8504 17.07 12.4904 16.73 12.5804 16.35C13.4904 12.71 16.9904 10 21.1704 10C26.0504 10 30.0004 13.69 30.0004 18.24C30.0004 20.94 28.6104 23.33 26.4704 24.83Z" fill="white"/>
<path d="M21 23.23C21 24.42 20.56 25.52 19.82 26.39C18.83 27.59 17.26 28.36 15.5 28.36L12.89 29.91C12.45 30.18 11.89 29.81 11.95 29.3L12.2 27.33C10.86 26.4 10 24.91 10 23.23C10 21.47 10.94 19.92 12.38 19C13.27 18.42 14.34 18.09 15.5 18.09C18.54 18.09 21 20.39 21 23.23Z" fill="white"/>
</svg>
